<?xml version="1.0" encoding="UTF-8"?>
<svg id="Layer_2" data-name="Layer 2" xmlns="http://www.w3.org/2000/svg" xmlns:xlink="http://www.w3.org/1999/xlink" viewBox="0 0 65 65">
  <defs>
    <style>
      .cls-1 {
        fill: url(#New_Gradient_Swatch_copy_2);
      }

      .cls-2 {
        fill: #e6f9f3;
      }

      .cls-3 {
        fill: #ffd774;
        stroke: #4c5f68;
        stroke-miterlimit: 10;
      }

      .cls-4 {
        fill: #4c5f68;
      }
    </style>
    <linearGradient id="New_Gradient_Swatch_copy_2" data-name="New Gradient Swatch copy 2" x1="6.56" y1="41.28" x2="57.17" y2="41.28" gradientUnits="userSpaceOnUse">
      <stop offset="0" stop-color="#80e0c1"/>
      <stop offset="1" stop-color="#62cba8"/>
    </linearGradient>
  </defs>
  <g id="Layer_1-2" data-name="Layer 1">
    <g>
      <circle class="cls-3" cx="32.5" cy="32.5" r="32"/>
      <polygon class="cls-1" points="19.78 32.75 23.22 32.75 26.65 32.75 30.08 32.75 33.64 32.75 37.08 32.75 40.51 32.75 43.95 32.75 57.17 32.75 57.17 46.74 57.17 49.8 6.56 49.8 6.56 32.75 19.78 32.75"/>
      <polygon class="cls-2" points="23.22 32.75 19.78 32.75 6.56 32.75 6.56 13.04 11.01 13.04 57.17 13.04 57.17 17.75 57.17 32.75 43.95 32.75 40.51 32.75 37.08 32.75 33.64 32.75 30.08 32.75 26.65 32.75 23.22 32.75"/>
      <path class="cls-4" d="m19.78,37.46c-.21,0-.38-.17-.38-.38v-8.65c0-.21.17-.38.38-.38s.38.17.38.38v8.65c0,.21-.17.38-.38.38Z"/>
      <path class="cls-4" d="m23.22,38.86c-.21,0-.38-.17-.38-.38v-11.45c0-.21.17-.38.38-.38s.38.17.38.38v11.45c0,.21-.17.38-.38.38Z"/>
      <path class="cls-4" d="m26.65,40.89c-.21,0-.38-.17-.38-.38v-15.39c0-.21.17-.38.38-.38s.38.17.38.38v15.39c0,.21-.17.38-.38.38Z"/>
      <path class="cls-4" d="m30.08,42.55c-.21,0-.38-.17-.38-.38v-18.69c0-.21.17-.38.38-.38s.38.17.38.38v18.69c0,.21-.17.38-.38.38Z"/>
      <path class="cls-4" d="m33.64,44.71c-.21,0-.38-.17-.38-.38v-23.02c0-.21.17-.38.38-.38s.38.17.38.38v23.02c0,.21-.17.38-.38.38Z"/>
      <path class="cls-4" d="m37.08,39.24c-.21,0-.38-.17-.38-.38v-12.08c0-.21.17-.38.38-.38s.38.17.38.38v12.08c0,.21-.17.38-.38.38Z"/>
      <path class="cls-4" d="m40.51,37.59c-.21,0-.38-.17-.38-.38v-8.9c0-.21.17-.38.38-.38s.38.17.38.38v8.9c0,.21-.17.38-.38.38Z"/>
      <path class="cls-4" d="m43.95,35.93c-.21,0-.38-.17-.38-.38v-5.6c0-.21.17-.38.38-.38s.38.17.38.38v5.6c0,.21-.17.38-.38.38Z"/>
      <polygon class="cls-4" points="61.75 9.86 61.75 46.74 57.17 46.74 57.17 32.75 57.17 17.75 57.17 13.04 11.01 13.04 11.01 9.86 61.75 9.86"/>
      <g>
        <path class="cls-4" d="m57.17,50.18H6.56c-.21,0-.38-.17-.38-.38V13.04c0-.21.17-.38.38-.38h4.45c.21,0,.38.17.38.38s-.17.38-.38.38h-4.07v35.99h49.85v-2.67c0-.21.17-.38.38-.38s.38.17.38.38v3.05c0,.21-.17.38-.38.38Z"/>
        <path class="cls-4" d="m57.17,33.14H6.56c-.21,0-.38-.17-.38-.38s.17-.38.38-.38h50.61c.21,0,.38.17.38.38s-.17.38-.38.38Z"/>
        <path class="cls-4" d="m57.17,18.13H9.23c-.21,0-.38-.17-.38-.38s.17-.38.38-.38h47.94c.21,0,.38.17.38.38s-.17.38-.38.38Z"/>
        <path class="cls-4" d="m42.17,53.23H13.81c-.21,0-.38-.17-.38-.38s.17-.38.38-.38h28.36c.21,0,.38.17.38.38s-.17.38-.38.38Z"/>
        <path class="cls-4" d="m55.26,53.23h-8.14c-.21,0-.38-.17-.38-.38s.17-.38.38-.38h8.14c.21,0,.38.17.38.38s-.17.38-.38.38Z"/>
        <path class="cls-4" d="m45.22,55.52h-18.31c-.21,0-.38-.17-.38-.38s.17-.38.38-.38h18.31c.21,0,.38.17.38.38s-.17.38-.38.38Z"/>
        <path class="cls-4" d="m11.77,55.52H3.76c-.21,0-.38-.17-.38-.38s.17-.38.38-.38h8.01c.21,0,.38.17.38.38s-.17.38-.38.38Z"/>
        <path class="cls-4" d="m22.58,55.52h-3.69c-.21,0-.38-.17-.38-.38s.17-.38.38-.38h3.69c.21,0,.38.17.38.38s-.17.38-.38.38Z"/>
        <path class="cls-4" d="m3.25,26.27c-.21,0-.38-.17-.38-.38v-15.01c0-.21.17-.38.38-.38h4.71c.21,0,.38.17.38.38s-.17.38-.38.38H3.63v14.63c0,.21-.17.38-.38.38Z"/>
        <path class="cls-4" d="m61.75,47.13h-4.58c-.21,0-.38-.17-.38-.38V13.43H11.01c-.21,0-.38-.17-.38-.38v-3.18c0-.21.17-.38.38-.38h50.74c.21,0,.38.17.38.38v36.88c0,.21-.17.38-.38.38Zm-4.2-.76h3.81V10.25H11.39v2.42h45.78c.21,0,.38.17.38.38v33.32Z"/>
      </g>
    </g>
  </g>
</svg>