<?xml version="1.0" encoding="UTF-8"?>
<svg id="Layer_2" data-name="Layer 2" xmlns="http://www.w3.org/2000/svg" xmlns:xlink="http://www.w3.org/1999/xlink" viewBox="0 0 584.7 411.84">
  <defs>
    <style>
      .cls-1 {
        fill: url(#New_Gradient_Swatch_copy_20);
      }

      .cls-2 {
        fill: #4c5f68;
      }

      .cls-3 {
        fill: url(#New_Gradient_Swatch_copy_13);
      }
    </style>
    <linearGradient id="New_Gradient_Swatch_copy_13" data-name="New Gradient Swatch copy 13" x1="242.68" y1="153.1" x2="580.09" y2="153.1" gradientUnits="userSpaceOnUse">
      <stop offset="0" stop-color="#39baf4"/>
      <stop offset="1" stop-color="#00a7f2"/>
    </linearGradient>
    <linearGradient id="New_Gradient_Swatch_copy_20" data-name="New Gradient Swatch copy 20" x1="286.84" y1="147.37" x2="469.59" y2="147.37" gradientUnits="userSpaceOnUse">
      <stop offset="0" stop-color="#ff697a"/>
      <stop offset="1" stop-color="#f74357"/>
    </linearGradient>
  </defs>
  <g id="Layer_1-2" data-name="Layer 1">
    <g>
      <path class="cls-3" d="m250.06,275.92h322.71c2.16,0,4.23,1.16,5.66,3.25l1.67,2.45V47.39c0-12.63-8.21-22.93-18.34-22.93h-298.22c-11.51,0-20.85,11.65-20.85,25.99v231.29l1.72-2.57c1.38-2.08,3.44-3.25,5.66-3.25Z"/>
      <path class="cls-2" d="m560.31,0H235.72c4.11,8.22,6.57,17.53,6.57,27.39v16.44h298.57v209H242.29v43.83h97.24v39.7c-31.03,3.97-65.61,13.5-65.61,36.33,0,37.26,92.09,39.15,110.55,39.15s110.56-1.89,110.56-39.15c0-22.84-34.58-32.36-65.62-36.33v-39.7h130.9c13.43,0,24.38-10.95,24.38-24.38V24.38c0-13.43-10.95-24.38-24.38-24.38Z"/>
      <path class="cls-2" d="m182.04.03H27.39C12.27.03,0,12.3,0,27.43v352.88c0,15.13,12.27,27.39,27.39,27.39h154.64c15.13,0,27.39-12.27,27.39-27.39V27.43C209.43,12.3,197.16.03,182.04.03Zm-77.32,338.38c-11.43,0-20.68-9.26-20.68-20.68s9.26-20.69,20.68-20.69,20.67,9.26,20.67,20.69-9.26,20.68-20.67,20.68Zm51.11-209.69c0,3.57-2.9,6.47-6.47,6.47H60.07c-3.57,0-6.47-2.9-6.47-6.47v-13.86c0-3.58,2.9-6.47,6.47-6.47h89.29c3.57,0,6.47,2.9,6.47,6.47v13.86Zm0-57.33c0,3.57-2.9,6.47-6.47,6.47H60.07c-3.57,0-6.47-2.9-6.47-6.47v-13.86c0-3.58,2.9-6.47,6.47-6.47h89.29c3.57,0,6.47,2.9,6.47,6.47v13.86Z"/>
      <path class="cls-1" d="m466.7,102.69c-1.59,3.6-3.9,7-6.83,9.93-2.05,2.05-4.32,3.81-6.75,5.16-3.23,1.93-6.66,3.23-10.23,3.94-2.35.42-4.69.63-7.04.55-2.43,0-4.82-.29-7.21-.88-1.26-.29-2.51-.67-3.73-1.13l-12.95,12.95-6.12,6.12-2.81,2.81-33.77,33.78-18.19,18.14c4.36,11.78,1.84,25.52-7.63,34.99-9.43,9.43-23.17,12.03-34.95,7.63l21.29-21.29-19.57-19.61-21.33,21.33c-4.36-11.77-1.8-25.52,7.67-34.99,9.43-9.43,23.17-11.99,34.95-7.63l52.13-52.13.33-.33,21.33-21.33c-4.28-11.65-1.84-25.23,7.33-34.65.08-.13.17-.21.29-.33,3.35-3.31,7.21-5.78,11.36-7.38,7.58-3.02,16.01-3.06,23.64-.25l-20.33,20.33-1.01,1,1.59,1.59,18.02,17.98,21.29-21.29c3.02,8.09,2.77,17.1-.8,25.02Z"/>
    </g>
  </g>
</svg>