<?xml version="1.0" encoding="UTF-8"?>
<svg id="Layer_2" data-name="Layer 2" xmlns="http://www.w3.org/2000/svg" xmlns:xlink="http://www.w3.org/1999/xlink" viewBox="0 0 64 45.08">
  <defs>
    <style>
      .cls-1 {
        fill: url(#linear-gradient);
      }

      .cls-2 {
        fill: #4c5f68;
      }

      .cls-3 {
        fill: url(#New_Gradient_Swatch_copy_13);
      }
    </style>
    <linearGradient id="New_Gradient_Swatch_copy_13" data-name="New Gradient Swatch copy 13" x1="26.56" y1="16.76" x2="63.5" y2="16.76" gradientUnits="userSpaceOnUse">
      <stop offset="0" stop-color="#39baf4"/>
      <stop offset="1" stop-color="#00a7f2"/>
    </linearGradient>
    <linearGradient id="linear-gradient" x1="31.4" y1="16.13" x2="51.4" y2="16.13" gradientUnits="userSpaceOnUse">
      <stop offset="0" stop-color="#ff697a"/>
      <stop offset="1" stop-color="#f74357"/>
    </linearGradient>
  </defs>
  <g id="Layer_1-2" data-name="Layer 1">
    <g>
      <path class="cls-3" d="m27.37,30.2h35.32c.24,0,.46.13.62.36l.18.27V5.19c0-1.38-.9-2.51-2.01-2.51H28.85c-1.26,0-2.28,1.27-2.28,2.84v25.32l.19-.28c.15-.23.38-.36.62-.36Z"/>
      <path class="cls-2" d="m61.33,0H25.8c.45.9.72,1.92.72,3v1.8h32.68v22.88H26.52v4.8h10.64v4.35c-3.4.43-7.18,1.48-7.18,3.98,0,4.08,10.08,4.29,12.1,4.29s12.1-.21,12.1-4.29c0-2.5-3.79-3.54-7.18-3.98v-4.35h14.33c1.47,0,2.67-1.2,2.67-2.67V2.67c0-1.47-1.2-2.67-2.67-2.67Z"/>
      <path class="cls-2" d="m19.93,0H3C1.34,0,0,1.35,0,3v38.63c0,1.66,1.34,3,3,3h16.93c1.66,0,3-1.34,3-3V3C22.92,1.35,21.58,0,19.93,0Zm-8.46,37.04c-1.25,0-2.26-1.01-2.26-2.26s1.01-2.26,2.26-2.26,2.26,1.01,2.26,2.26-1.01,2.26-2.26,2.26Zm5.59-22.95c0,.39-.32.71-.71.71H6.57c-.39,0-.71-.32-.71-.71v-1.52c0-.39.32-.71.71-.71h9.77c.39,0,.71.32.71.71v1.52Zm0-6.27c0,.39-.32.71-.71.71H6.57c-.39,0-.71-.32-.71-.71v-1.52c0-.39.32-.71.71-.71h9.77c.39,0,.71.32.71.71v1.52Z"/>
      <path class="cls-1" d="m51.08,11.24c-.17.39-.43.77-.75,1.09-.22.22-.47.42-.74.56-.35.21-.73.35-1.12.43-.26.05-.51.07-.77.06-.27,0-.53-.03-.79-.1-.14-.03-.28-.07-.41-.12l-1.42,1.42-.67.67-.31.31-3.7,3.7-1.99,1.99c.48,1.29.2,2.79-.83,3.83-1.03,1.03-2.54,1.32-3.83.83l2.33-2.33-2.14-2.15-2.33,2.33c-.48-1.29-.2-2.79.84-3.83,1.03-1.03,2.54-1.31,3.83-.83l5.71-5.71.04-.04,2.33-2.33c-.47-1.28-.2-2.76.8-3.79,0-.01.02-.02.03-.04.37-.36.79-.63,1.24-.81.83-.33,1.75-.33,2.59-.03l-2.22,2.22-.11.11.17.17,1.97,1.97,2.33-2.33c.33.89.3,1.87-.09,2.74Z"/>
    </g>
  </g>
</svg>