<?xml version="1.0" encoding="UTF-8"?>
<svg id="Layer_2" data-name="Layer 2" xmlns="http://www.w3.org/2000/svg" viewBox="0 0 537.07 366.38">
  <defs>
    <style>
      .cls-1 {
        fill: #57606f;
      }

      .cls-2 {
        fill: #fff;
      }

      .cls-3 {
        fill: #00a7f2;
      }

      .cls-4 {
        fill: #f74357;
      }

      .cls-5 {
        fill: #4c5f68;
      }

      .cls-6 {
        fill: #f4be9c;
      }
    </style>
  </defs>
  <g id="Layer_1-2" data-name="Layer 1">
    <g>
      <path class="cls-1" d="m537.07,0v366.38H0V0h537.07Zm-25.01,341.37V25.02H26.49v316.35h485.57Z"/>
      <path class="cls-3" d="m512.05,25.02v316.35H26.49V25.02h485.57ZM233.95,119.19v-61.8H61.8v61.8h172.15Z"/>
      <rect class="cls-2" x="61.8" y="57.39" width="172.15" height="61.8"/>
      <path class="cls-1" d="m233.95,123.61H61.8c-2.43,0-4.41-1.98-4.41-4.42v-61.8c0-2.43,1.98-4.41,4.41-4.41h172.15c2.44,0,4.42,1.98,4.42,4.41v61.8c0,2.44-1.98,4.42-4.42,4.42Zm-167.74-8.83h163.33v-52.97H66.21v52.97Z"/>
      <path class="cls-1" d="m216.3,155.97H79.45c-2.43,0-4.41-1.98-4.41-4.41s1.98-4.42,4.41-4.42h136.84c2.44,0,4.42,1.98,4.42,4.42s-1.98,4.41-4.42,4.41Z"/>
      <path class="cls-1" d="m216.3,183.93H79.45c-2.43,0-4.41-1.98-4.41-4.41s1.98-4.41,4.41-4.41h136.84c2.44,0,4.42,1.97,4.42,4.41s-1.98,4.41-4.42,4.41Z"/>
      <path class="cls-1" d="m216.3,211.89H79.45c-2.43,0-4.41-1.97-4.41-4.41s1.98-4.41,4.41-4.41h136.84c2.44,0,4.42,1.97,4.42,4.41s-1.98,4.41-4.42,4.41Z"/>
      <path class="cls-1" d="m216.3,239.84H79.45c-2.43,0-4.41-1.97-4.41-4.41s1.98-4.41,4.41-4.41h136.84c2.44,0,4.42,1.98,4.42,4.41s-1.98,4.41-4.42,4.41Z"/>
      <path class="cls-1" d="m216.3,267.8H79.45c-2.43,0-4.41-1.98-4.41-4.42s1.98-4.41,4.41-4.41h136.84c2.44,0,4.42,1.98,4.42,4.41s-1.98,4.42-4.42,4.42Z"/>
      <path class="cls-1" d="m216.3,297.23H79.45c-2.43,0-4.41-1.98-4.41-4.41s1.98-4.41,4.41-4.41h136.84c2.44,0,4.42,1.97,4.42,4.41s-1.98,4.41-4.42,4.41Z"/>
      <g>
        <path class="cls-6" d="m412.45,188.46c-20.88,16.67-40.19,16.46-58.8-.61,6.2-1.92,10.75-2.94,12.32-3.27,8.32,5.44,15.24,5.76,16.04,5.78h.15c.77-.02,7.99-.26,16.54-5.68,2.1.46,7.15,1.65,13.76,3.78Z"/>
        <path class="cls-4" d="m477.73,272.05c-.79,1.76-7.18,14.35-28.87,10.83l-2.01-15.23c-.22-1.7-1.78-2.9-3.49-2.68-1.7.23-2.9,1.79-2.67,3.49l2.11,15.96c-3.89,3.57-20.74,16.52-60.69,16.8-39.97-.28-56.83-13.25-60.69-16.8l2.11-15.96c.23-1.7-.97-3.27-2.67-3.49-1.7-.22-3.27.98-3.49,2.68l-2.01,15.23c-21.74,3.52-28.12-9.14-28.86-10.82-3.76-16.9-1.3-32.13,7.34-45.3,12.7-19.37,36.28-30.7,53.16-36.69,11.43,11.37,23.3,17.07,35.53,17.07s24.26-5.45,36.82-16.3c16.69,6.16,38.88,17.35,51.07,35.93,8.63,13.16,11.1,28.4,7.34,45.29Z"/>
        <path class="cls-6" d="m421.84,126.47c-.87,19.81-13.12,46.89-21.5,52.7-9.15,6.34-18.16,6.95-18.77,6.97-.59-.02-8.19-.5-16.67-7.53-8.26-6.85-19.08-21.47-23.64-52.23-2.45-16.49.38-29.57,8.4-38.87,8.8-10.2,22.24-13.83,31.9-13.83,7.74,0,22.14,1.6,31.62,12.31,7.93,8.97,9.46,22.47,8.67,40.48Z"/>
        <path class="cls-5" d="m475.57,223.34c-18.21-27.75-55.61-39.74-70.52-43.55,5.1-4.68,9.4-10.62,12.88-17.8,4.95-10.28,8.43-26.62,9.46-35.03,2.34-19.22-1-34.09-9.94-44.19-10.82-12.22-26.8-14.05-35.36-14.05-10.75,0-25.77,4.1-35.69,15.59-9.03,10.47-12.26,24.84-9.6,42.72,3.57,24.04,11.27,41.71,22.9,52.61-14.5,3.64-52.64,15.57-71.1,43.69-9.65,14.7-12.39,31.64-8.16,50.36.03.14.08.29.13.42.08.22,2.12,5.44,7.98,9.76,5.05,3.73,14.05,7.54,28.49,5.03,4.76,4.48,22.8,18.26,65.02,18.54h.04c42.21-.29,60.26-14.07,65.02-18.54,14.45,2.52,23.44-1.3,28.49-5.03,5.86-4.33,7.9-9.54,7.98-9.76.05-.14.1-.28.13-.42,4.23-18.71,1.49-35.65-8.16-50.36Zm-93.57-32.97s.06,0,.09,0c.02,0,.04,0,.06,0,.77-.01,7.99-.26,16.54-5.68,2.1.46,7.15,1.65,13.76,3.77-20.88,16.67-40.19,16.46-58.81-.6,6.2-1.92,10.75-2.94,12.32-3.27,8.32,5.44,15.25,5.76,16.04,5.78Zm-39.05-64.25c-2.38-16.01.37-28.71,8.16-37.75,8.54-9.9,21.6-13.43,30.98-13.43,7.52,0,21.5,1.55,30.7,11.95,7.71,8.71,10.54,21.93,8.42,39.31-1.5,12.26-4.29,22.86-8.26,31.56-3.23,7.09-10.83,16.52-14.1,19.16-8.41,6.79-16.15,7.2-16.75,7.22-.57-.03-7.95-.49-16.18-7.31-8.03-6.65-18.53-20.85-22.96-50.72Zm134.77,145.94c-.78,1.76-7.18,14.34-28.87,10.83l-2.01-15.23c-.22-1.7-1.79-2.9-3.49-2.68-1.7.22-2.9,1.79-2.68,3.49l2.11,15.96c-3.89,3.57-20.75,16.52-60.69,16.8-39.97-.28-56.83-13.25-60.7-16.8l2.11-15.96c.22-1.7-.97-3.27-2.68-3.49-1.7-.22-3.27.97-3.49,2.68l-2.01,15.23c-21.74,3.52-28.12-9.13-28.87-10.82-3.76-16.89-1.29-32.13,7.34-45.29,12.7-19.37,36.29-30.71,53.16-36.69,11.43,11.37,23.3,17.06,35.53,17.06s24.26-5.45,36.82-16.31c16.69,6.16,38.89,17.36,51.07,35.93,8.63,13.16,11.1,28.4,7.34,45.29Z"/>
      </g>
    </g>
  </g>
</svg>