<?xml version="1.0" encoding="UTF-8"?>
<svg id="Layer_2" data-name="Layer 2" xmlns="http://www.w3.org/2000/svg" xmlns:xlink="http://www.w3.org/1999/xlink" viewBox="0 0 64 63.99">
  <defs>
    <style>
      .cls-1 {
        fill: url(#New_Gradient_Swatch_copy_2-4);
      }

      .cls-2 {
        fill: url(#New_Gradient_Swatch_copy_2-7);
      }

      .cls-3 {
        fill: url(#New_Gradient_Swatch_copy_2-6);
      }

      .cls-4 {
        fill: url(#New_Gradient_Swatch_copy_2-16);
      }

      .cls-5 {
        fill: url(#New_Gradient_Swatch_copy_2);
      }

      .cls-6 {
        fill: url(#New_Gradient_Swatch_copy_2-2);
      }

      .cls-7 {
        fill: url(#New_Gradient_Swatch_copy_2-15);
      }

      .cls-8 {
        fill: url(#New_Gradient_Swatch_copy_2-8);
      }

      .cls-9 {
        fill: url(#New_Gradient_Swatch_copy_2-5);
      }

      .cls-10 {
        fill: url(#New_Gradient_Swatch_copy_2-14);
      }

      .cls-11 {
        fill: #64737a;
      }

      .cls-12 {
        fill: url(#New_Gradient_Swatch_copy_2-3);
      }

      .cls-13 {
        fill: url(#New_Gradient_Swatch_copy_2-9);
      }

      .cls-14 {
        fill: url(#New_Gradient_Swatch_copy_2-13);
      }

      .cls-15 {
        fill: url(#New_Gradient_Swatch_copy);
      }

      .cls-16 {
        fill: url(#New_Gradient_Swatch_copy_2-11);
      }

      .cls-17 {
        fill: url(#New_Gradient_Swatch_copy_2-10);
      }

      .cls-18 {
        fill: url(#New_Gradient_Swatch_copy_2-12);
      }
    </style>
    <linearGradient id="New_Gradient_Swatch_copy_2" data-name="New Gradient Swatch copy 2" x1="4.36" y1="53.47" x2="23.6" y2="5.07" gradientUnits="userSpaceOnUse">
      <stop offset="0" stop-color="#80e0c1"/>
      <stop offset="1" stop-color="#62cba8"/>
    </linearGradient>
    <linearGradient id="New_Gradient_Swatch_copy_2-2" data-name="New Gradient Swatch copy 2" x1="43.24" y1="68.92" x2="62.47" y2="20.51" xlink:href="#New_Gradient_Swatch_copy_2"/>
    <linearGradient id="New_Gradient_Swatch_copy_2-3" data-name="New Gradient Swatch copy 2" x1="-1.53" y1="51.13" x2="17.7" y2="2.72" xlink:href="#New_Gradient_Swatch_copy_2"/>
    <linearGradient id="New_Gradient_Swatch_copy_2-4" data-name="New Gradient Swatch copy 2" x1="37.36" y1="66.58" x2="56.59" y2="18.17" xlink:href="#New_Gradient_Swatch_copy_2"/>
    <linearGradient id="New_Gradient_Swatch_copy" data-name="New Gradient Swatch copy" x1="0" y1="31.99" x2="64" y2="31.99" gradientUnits="userSpaceOnUse">
      <stop offset="0" stop-color="#5f727a"/>
      <stop offset="1" stop-color="#4c5f68"/>
    </linearGradient>
    <linearGradient id="New_Gradient_Swatch_copy_2-5" data-name="New Gradient Swatch copy 2" x1="15.82" y1="58.03" x2="35.05" y2="9.62" xlink:href="#New_Gradient_Swatch_copy_2"/>
    <linearGradient id="New_Gradient_Swatch_copy_2-6" data-name="New Gradient Swatch copy 2" x1="30.51" y1="63.86" x2="49.75" y2="15.46" xlink:href="#New_Gradient_Swatch_copy_2"/>
    <linearGradient id="New_Gradient_Swatch_copy_2-7" data-name="New Gradient Swatch copy 2" x1="11.21" y1="56.19" x2="30.44" y2="7.78" xlink:href="#New_Gradient_Swatch_copy_2"/>
    <linearGradient id="New_Gradient_Swatch_copy_2-8" data-name="New Gradient Swatch copy 2" x1="25.9" y1="62.03" x2="45.14" y2="13.62" xlink:href="#New_Gradient_Swatch_copy_2"/>
    <linearGradient id="New_Gradient_Swatch_copy_2-9" data-name="New Gradient Swatch copy 2" x1="24.71" y1="61.56" x2="43.95" y2="13.15" xlink:href="#New_Gradient_Swatch_copy_2"/>
    <linearGradient id="New_Gradient_Swatch_copy_2-10" data-name="New Gradient Swatch copy 2" x1="-.31" y1="51.62" x2="18.93" y2="3.21" xlink:href="#New_Gradient_Swatch_copy_2"/>
    <linearGradient id="New_Gradient_Swatch_copy_2-11" data-name="New Gradient Swatch copy 2" x1="8.42" y1="55.09" x2="27.66" y2="6.68" xlink:href="#New_Gradient_Swatch_copy_2"/>
    <linearGradient id="New_Gradient_Swatch_copy_2-12" data-name="New Gradient Swatch copy 2" x1="18.53" y1="59.1" x2="37.76" y2="10.69" xlink:href="#New_Gradient_Swatch_copy_2"/>
    <linearGradient id="New_Gradient_Swatch_copy_2-13" data-name="New Gradient Swatch copy 2" x1="42.01" y1="68.43" x2="61.25" y2="20.02" xlink:href="#New_Gradient_Swatch_copy_2"/>
    <linearGradient id="New_Gradient_Swatch_copy_2-14" data-name="New Gradient Swatch copy 2" x1="33.3" y1="64.97" x2="52.53" y2="16.56" xlink:href="#New_Gradient_Swatch_copy_2"/>
    <linearGradient id="New_Gradient_Swatch_copy_2-15" data-name="New Gradient Swatch copy 2" x1="23.19" y1="60.96" x2="42.43" y2="12.55" xlink:href="#New_Gradient_Swatch_copy_2"/>
    <linearGradient id="New_Gradient_Swatch_copy_2-16" data-name="New Gradient Swatch copy 2" x1="17.03" y1="58.51" x2="36.26" y2="10.1" xlink:href="#New_Gradient_Swatch_copy_2"/>
  </defs>
  <g id="Layer_1-2" data-name="Layer 1">
    <g>
      <path class="cls-11" d="m12.06,54.08s0,0-.01,0c.2.19.41.36.62.54-.2-.18-.4-.35-.6-.54Zm3.98,3.05c.75.49,1.52.93,2.31,1.33-.79-.42-1.55-.85-2.31-1.33Zm2.31,1.33c1.49.78,3.04,1.42,4.65,1.91-1.6-.51-3.15-1.14-4.65-1.91Zm4.65,1.91h0s0,.01,0,.01c.13.04.26.08.39.12-.13-.04-.28-.09-.41-.13Zm9.69,3.6s-.06,0-.09,0c.22,0,.45,0,.66-.02-.19,0-.38.01-.57.01Zm.42-61.72c-.16,0-.32,0-.48,0,.16,0,.32,0,.48.01.07,0,.16,0,.23,0-.07,0-.16-.02-.23-.02Zm-.52-.01c-.06,0-.11,0-.17,0-.07,0-.14,0-.21,0,.07,0,.16,0,.24.02.06,0,.12,0,.18,0-.02,0-.02,0-.04,0Zm-1.71,0c-.22.01-.45.02-.66.04.22-.02.44-.02.66-.03.23-.01.47-.02.7-.02-.23,0-.47,0-.7.02Zm-7.89,1.37s0,0,0,0c.04-.01.07-.02.1-.03-.03,0-.06.02-.09.02Zm28.95,50.46c-.16.16-.33.3-.5.45.17-.13.34-.28.51-.44,0,0,0,0-.01,0Z"/>
      <path class="cls-5" d="m15.95,49.98c-2.01.7-3.87,1.52-5.57,2.47-4.95-5.22-7.86-12.13-8.13-19.34h10.38c.13,6.05,1.29,11.92,3.32,16.87Z"/>
      <path class="cls-6" d="m61.75,33.11c-.28,7.2-3.19,14.12-8.13,19.34-1.69-.94-3.56-1.78-5.57-2.47,2.03-4.96,3.19-10.82,3.32-16.87h10.39Z"/>
      <path class="cls-12" d="m15.95,14.01c-2.05,4.99-3.2,10.77-3.32,16.87H2.25c.27-7.27,3.12-14.07,8.12-19.34,1.69.94,3.56,1.77,5.58,2.47Z"/>
      <path class="cls-1" d="m61.75,30.88h-10.39c-.12-6.09-1.26-11.89-3.32-16.87,2.01-.7,3.88-1.53,5.58-2.47,5,5.27,7.86,12.07,8.12,19.34Z"/>
      <path class="cls-11" d="m33.11,2.26c-.16,0-.32,0-.48,0,.16,0,.32.02.48.04v-.03c.07,0,.16,0,.23,0-.07,0-.16-.02-.23-.02Zm-10.11,58.11h0s0,.01,0,.01c.13.04.26.08.39.12-.13-.04-.28-.09-.41-.13ZM31.58,2.23c-.23,0-.47,0-.7.02-.22.01-.45.02-.66.04.22-.02.44-.02.66-.03v.04c.23-.03.47-.05.7-.06Zm-8.59,1.38s0,0,0,0c.04-.01.07-.02.1-.03-.03,0-.06.02-.09.02Z"/>
      <path class="cls-15" d="m54.6,9.35C48.69,3.45,40.85.13,32.52.01c-.33-.02-.74-.02-1,0h-.05C23.13.14,15.29,3.47,9.4,9.35,3.34,15.39,0,23.43,0,32s3.41,16.68,9.4,22.64c1.12,1.12,2.31,2.15,3.57,3.08.19.15.39.29.59.43.21.15.41.29.61.42.41.28.83.54,1.24.8s.84.51,1.27.73c.22.12.43.23.65.35,1.3.67,2.65,1.25,4.03,1.74.46.16.93.31,1.4.45.23.07.47.13.7.2.29.09.59.16.88.23.18.04.36.09.54.13.23.05.46.1.69.15.52.11,1.05.21,1.58.28.33.05.65.1.99.13.33.04.67.07,1,.1.04,0,.07,0,.1,0,.25.02.49.04.74.05.09,0,.18.02.27.02.4.02.81.04,1.22.04.16,0,.34,0,.52,0s.35,0,.48,0h.12s.06,0,.09,0c.19,0,.39,0,.57-.01.24,0,.47-.02.71-.04.25-.01.49-.03.74-.05.74-.06,1.47-.14,2.2-.26.21-.03.42-.07.63-.1.51-.08,1.03-.19,1.53-.3.24-.05.48-.11.71-.17.24-.06.48-.12.71-.19.23-.06.47-.13.7-.2.24-.07.47-.14.7-.22s.46-.15.69-.23c.7-.24,1.39-.51,2.06-.8.22-.09.43-.19.65-.29.45-.2.88-.42,1.32-.64.22-.11.43-.22.65-.34.16-.08.33-.17.48-.27.16-.09.31-.19.48-.27.24-.14.47-.28.71-.42l.69-.45c.46-.3.91-.62,1.35-.95.2-.14.39-.29.59-.44.19-.14.39-.3.58-.46.19-.16.38-.31.57-.48.19-.16.37-.32.56-.48.19-.17.36-.33.55-.51.27-.24.53-.5.8-.76h0c5.98-5.98,9.39-14.17,9.39-22.64s-3.34-16.61-9.4-22.64Zm-42.46.47c.3-.27.6-.54.91-.79.02-.01.04-.04.06-.05.3-.25.61-.49.92-.73.45-.34.91-.67,1.38-.98.29-.2.59-.39.89-.57.1-.07.2-.13.31-.19.28-.18.57-.34.86-.51.33-.19.66-.36,1-.54.06-.03.12-.06.18-.09.36-.19.74-.36,1.11-.53.07-.03.15-.07.22-.1.33-.15.66-.28,1-.42.48-.19.95-.37,1.44-.53.19-.06.37-.12.56-.18,0,0,0,0,0,0,.03,0,.06-.01.09-.02-.03,0-.06.02-.1.03-2.34,2.02-4.42,4.84-6.11,8.34-1.72-.59-3.35-1.28-4.82-2.06.03-.03.07-.06.1-.08Zm18.74,37.59c-4.44.09-8.82.74-12.8,1.89-1.97-4.72-3.09-10.36-3.22-16.19h16.02v14.3Zm0-16.53H14.87c.12-5.88,1.23-11.44,3.22-16.2,3.98,1.16,8.36,1.81,12.8,1.9v14.3ZM10.38,11.54c1.69.94,3.56,1.77,5.58,2.47-2.05,4.99-3.2,10.77-3.32,16.87H2.25c.27-7.27,3.12-14.07,8.12-19.34ZM2.25,33.11h10.38c.13,6.05,1.29,11.92,3.32,16.87-2.01.7-3.87,1.52-5.57,2.47-4.95-5.22-7.86-12.13-8.13-19.34Zm20.77,27.27h0s0-.01,0-.01c-1.61-.49-3.15-1.13-4.65-1.91-.79-.4-1.56-.84-2.31-1.33-.01,0-.04-.01-.05-.03-.17-.1-.33-.22-.51-.33-.03,0-.06-.03-.09-.06-.09-.05-.19-.11-.28-.19-.01,0-.02,0-.04-.02-.07-.04-.16-.1-.24-.17-.37-.25-.74-.53-1.11-.83-.18-.13-.35-.26-.52-.41-.13-.1-.27-.21-.39-.33-.06-.04-.11-.09-.16-.14-.21-.17-.42-.35-.62-.54,0,0,0,0,.01,0,1.47-.78,3.08-1.47,4.8-2.06,0,.02.01.04.02.05,1.69,3.48,3.78,6.29,6.12,8.3.13.04.27.09.41.13-.13-.04-.27-.07-.39-.12Zm-4-9.03c3.69-1.04,7.75-1.62,11.86-1.71v12.05c-4.56-.52-8.84-4.24-11.86-10.34ZM30.89,2.29v12.06c-4.11-.09-8.17-.68-11.87-1.72,3.03-6.1,7.28-9.81,11.87-10.34v-.04c-.22,0-.45.02-.66.03.22-.02.44-.02.66-.04.23,0,.47-.02.7-.02-.23,0-.47.03-.7.06Zm30.86,28.59h-10.39c-.12-6.09-1.26-11.89-3.32-16.87,2.01-.7,3.88-1.53,5.58-2.47,5,5.27,7.86,12.07,8.12,19.34Zm-28.63,0v-14.3c4.44-.09,8.82-.74,12.79-1.89,1.99,4.76,3.1,10.32,3.22,16.19h-16.01Zm16.01,2.23c-.13,5.83-1.25,11.48-3.22,16.2-3.98-1.16-8.36-1.81-12.79-1.9v-14.3h16.01Zm-5.28-28.43c.13.05.26.11.39.17.03.02.07.03.1.04.34.16.67.32,1,.48.06.03.12.06.18.09.33.17.67.35,1,.54.29.16.58.33.86.51.13.07.25.15.38.23.34.22.68.43,1,.65.02.01.04.03.06.04.31.22.62.44.93.66.42.31.82.63,1.22.96.29.25.57.49.85.74.04.03.08.07.12.1-1.48.77-3.08,1.46-4.82,2.06-1.69-3.5-3.77-6.33-6.11-8.34.96.3,1.9.65,2.82,1.06Zm-11.22-2.43c-.06,0-.12,0-.18,0-.08,0-.16-.02-.24-.02.07,0,.13,0,.21,0,.06,0,.11,0,.17,0,.02,0,.02,0,.04,0,.16,0,.32,0,.48,0,.07,0,.16,0,.23.02-.07,0-.16,0-.23,0v.03c4.59.52,8.84,4.23,11.86,10.35-3.69,1.04-7.75,1.62-11.86,1.71V2.29c-.16-.02-.32-.04-.48-.04Zm.48,59.44v-12.05c4.11.09,8.17.67,11.86,1.72-3.03,6.09-7.31,9.81-11.86,10.33Zm18.32-7.17c-.07.07-.13.13-.19.17t-.02,0c-.25.23-.51.44-.77.63-.07.07-.14.12-.21.16-.13.11-.27.22-.4.32-.22.16-.43.32-.65.47-.07.06-.15.11-.23.16-.18.13-.36.25-.54.36-.16.12-.33.22-.5.32-.17.12-.34.23-.52.33-.02.02-.04.04-.07.04-.12.08-.24.16-.36.22-.04.04-.08.06-.13.07-.18.12-.36.22-.55.31-.23.13-.47.26-.71.38-.18.1-.36.19-.54.27-.21.1-.42.21-.63.3-.18.09-.36.17-.55.25-.21.1-.42.19-.64.27-.2.09-.41.17-.62.25-.24.09-.48.18-.72.26-.22.08-.43.15-.65.22-.07.03-.16.06-.24.07,2.33-2.01,4.43-4.82,6.12-8.3,0-.02.01-.03.02-.04,1.72.59,3.33,1.27,4.8,2.05,0,0,0,0,.01,0-.17.16-.34.3-.51.44Zm2.18-2.07c-1.69-.94-3.56-1.78-5.57-2.47,2.03-4.96,3.19-10.82,3.32-16.87h10.39c-.28,7.2-3.19,14.12-8.13,19.34Z"/>
      <path class="cls-9" d="m30.89,33.11v14.3c-4.44.09-8.82.74-12.8,1.89-1.97-4.72-3.09-10.36-3.22-16.19h16.02Z"/>
      <path class="cls-3" d="m49.13,33.11c-.13,5.83-1.25,11.48-3.22,16.2-3.98-1.16-8.36-1.81-12.79-1.9v-14.3h16.01Z"/>
      <path class="cls-2" d="m30.89,16.58v14.3H14.87c.12-5.88,1.23-11.44,3.22-16.2,3.98,1.16,8.36,1.81,12.8,1.9Z"/>
      <path class="cls-8" d="m49.13,30.88h-16.01v-14.3c4.44-.09,8.82-.74,12.79-1.89,1.99,4.76,3.1,10.32,3.22,16.19Z"/>
      <path class="cls-11" d="m32.42,2.23c-.07,0-.14,0-.21,0,.07,0,.16,0,.24.02h.14c-.06,0-.11,0-.17,0Z"/>
      <path class="cls-13" d="m51.95,9.91c-1.48.77-3.08,1.46-4.82,2.06-1.69-3.5-3.77-6.33-6.11-8.34.96.3,1.9.65,2.82,1.06.13.05.26.11.39.17.03.02.07.03.1.04.33.16.67.32,1,.48.06.03.12.06.18.09.33.17.67.35,1,.54.29.16.58.33.86.51.13.07.25.15.38.23.34.22.68.43,1,.65.02.01.04.03.06.04.31.22.62.44.93.66.42.31.82.63,1.22.96.29.25.57.49.85.74.04.03.08.07.12.1Z"/>
      <path class="cls-17" d="m22.98,3.62c-2.34,2.02-4.42,4.84-6.11,8.34-1.72-.59-3.35-1.28-4.82-2.06.03-.03.07-.06.1-.08.3-.27.6-.54.91-.79.02-.01.04-.04.06-.05.3-.25.61-.49.92-.73.45-.34.91-.67,1.38-.98.29-.2.59-.39.89-.57.1-.07.2-.13.31-.19.28-.18.57-.34.86-.51.33-.19.66-.36,1-.54.06-.03.12-.06.18-.09.36-.19.74-.36,1.11-.53.07-.03.15-.07.22-.1.33-.15.66-.28,1-.42.48-.19.95-.37,1.44-.53.19-.06.37-.12.56-.18Z"/>
      <path class="cls-16" d="m30.89,2.29v12.06c-4.11-.09-8.17-.68-11.87-1.72,3.03-6.1,7.28-9.81,11.87-10.34Z"/>
      <path class="cls-18" d="m44.98,12.64c-3.69,1.04-7.75,1.62-11.86,1.71V2.29c4.59.52,8.84,4.23,11.86,10.35Z"/>
      <path class="cls-11" d="m17.34,60.44c1.3.68,2.65,1.26,4.03,1.74-1.38-.49-2.73-1.07-4.03-1.74Z"/>
      <path class="cls-14" d="m51.94,54.08c-.16.16-.33.3-.5.45-.07.07-.13.13-.19.17t-.02,0c-.25.23-.51.44-.77.63-.07.07-.14.12-.21.16-.13.11-.27.22-.4.32-.22.16-.43.32-.65.47-.07.06-.15.11-.23.16-.18.13-.36.25-.54.36-.16.12-.33.22-.5.32-.17.11-.34.22-.52.33-.02.02-.04.04-.07.04-.12.08-.24.15-.36.22-.04.04-.08.06-.13.07-.19.1-.36.21-.55.31-.23.13-.47.26-.71.38-.18.1-.36.19-.54.27-.21.1-.42.21-.63.3-.18.09-.36.17-.55.25-.21.1-.42.19-.64.27-.2.09-.41.17-.62.25-.24.09-.48.18-.72.26-.22.08-.43.15-.65.22-.07.03-.16.06-.24.07,2.33-2.01,4.43-4.82,6.12-8.3,0-.02.01-.03.02-.04,1.72.59,3.33,1.27,4.8,2.05Z"/>
      <path class="cls-10" d="m44.98,51.36c-3.03,6.09-7.31,9.81-11.86,10.33v-12.05c4.11.09,8.17.67,11.86,1.72Z"/>
      <path class="cls-7" d="m30.89,49.64v12.05c-4.56-.52-8.84-4.24-11.86-10.34,3.69-1.04,7.75-1.62,11.86-1.71Z"/>
      <path class="cls-4" d="m23.01,60.37c-1.6-.51-3.15-1.14-4.65-1.91-.79-.42-1.55-.85-2.31-1.33-.01,0-.04-.01-.05-.03-.17-.1-.33-.22-.51-.33-.03,0-.06-.03-.09-.06-.09-.07-.19-.13-.28-.19-.01,0-.02,0-.04-.02-.08-.05-.16-.1-.24-.17-.37-.27-.74-.54-1.11-.83-.18-.13-.35-.26-.52-.41-.13-.11-.26-.22-.39-.33-.06-.04-.11-.09-.16-.14-.2-.18-.4-.35-.6-.54,1.47-.78,3.08-1.47,4.8-2.06,0,.02.01.04.02.05,1.69,3.48,3.78,6.29,6.12,8.3Z"/>
      <path class="cls-11" d="m31.58,2.23c-.23,0-.47.03-.7.06v-.04c.23,0,.47-.02.7-.02Z"/>
      <path class="cls-11" d="m32.63,2.25c-.06,0-.12,0-.18,0-.08,0-.16-.02-.24-.02.07,0,.13,0,.21,0,.06,0,.11,0,.17,0,.02,0,.02,0,.04,0Z"/>
      <path class="cls-11" d="m33.11,2.26v.04c-.16-.02-.32-.04-.48-.04.16,0,.32,0,.48,0Z"/>
    </g>
  </g>
</svg>