<?xml version="1.0" encoding="UTF-8"?>
<svg id="Layer_2" data-name="Layer 2" xmlns="http://www.w3.org/2000/svg" xmlns:xlink="http://www.w3.org/1999/xlink" viewBox="0 0 314.4 314.34">
  <defs>
    <style>
      .cls-1 {
        fill: url(#New_Gradient_Swatch_copy);
      }
    </style>
    <linearGradient id="New_Gradient_Swatch_copy" data-name="New Gradient Swatch copy" x1="0" y1="157.17" x2="314.4" y2="157.17" gradientUnits="userSpaceOnUse">
      <stop offset="0" stop-color="#5f727a"/>
      <stop offset="1" stop-color="#4c5f68"/>
    </linearGradient>
  </defs>
  <g id="Layer_1-2" data-name="Layer 1">
    <path class="cls-1" d="m268.24,45.95C239.21,16.96,200.65.64,159.76.06c-1.64-.07-3.65-.07-4.93,0h-.26c-40.93.66-79.46,16.98-108.41,45.9C16.4,75.6,0,115.08,0,157.18s16.76,81.94,46.19,111.23c5.51,5.51,11.36,10.55,17.53,15.12.95.73,1.94,1.43,2.92,2.12,1.02.73,2.01,1.43,2.99,2.08,2.01,1.35,4.05,2.63,6.1,3.91s4.13,2.48,6.24,3.58c1.06.58,2.12,1.13,3.21,1.72,6.39,3.29,13.04,6.14,19.79,8.54,2.26.77,4.56,1.54,6.86,2.23,1.13.33,2.3.66,3.43.99,1.42.44,2.88.8,4.34,1.13.88.22,1.79.44,2.67.62,1.13.26,2.26.51,3.4.73,2.56.55,5.15,1.02,7.74,1.39,1.61.26,3.21.48,4.86.66,1.64.18,3.29.37,4.93.51.18.04.33.04.51.04,1.21.11,2.41.18,3.62.26.44.04.88.07,1.32.07,1.97.11,3.98.18,5.99.22.8.04,1.68.04,2.56.04s1.72,0,2.37-.04h.58c.15,0,.29,0,.44-.04.95,0,1.9-.04,2.81-.07,1.17-.04,2.3-.11,3.47-.18,1.21-.07,2.41-.15,3.62-.26,3.65-.29,7.23-.69,10.81-1.28,1.02-.15,2.08-.33,3.1-.51,2.52-.4,5.04-.91,7.52-1.5,1.17-.26,2.34-.55,3.51-.84,1.17-.29,2.34-.58,3.5-.91,1.13-.29,2.3-.62,3.43-.99,1.17-.33,2.3-.69,3.43-1.06,1.13-.37,2.26-.73,3.4-1.13,3.43-1.17,6.83-2.48,10.11-3.94,1.06-.44,2.12-.91,3.18-1.42,2.19-.99,4.35-2.05,6.46-3.14,1.06-.55,2.12-1.1,3.18-1.68.8-.4,1.61-.84,2.37-1.32.77-.44,1.53-.91,2.34-1.35,1.17-.69,2.3-1.39,3.47-2.08l3.4-2.19c2.26-1.5,4.45-3.03,6.65-4.67.98-.69,1.93-1.42,2.88-2.15.95-.69,1.9-1.46,2.85-2.26.95-.77,1.86-1.53,2.81-2.34.91-.8,1.83-1.57,2.74-2.37.91-.84,1.79-1.64,2.7-2.48,1.31-1.17,2.63-2.45,3.91-3.73l.04-.04c29.36-29.32,46.12-69.56,46.12-111.19s-16.4-81.57-46.15-111.22Zm-208.58,2.3c1.46-1.35,2.96-2.63,4.49-3.87.07-.07.18-.18.29-.25,1.46-1.21,3-2.41,4.53-3.58,2.19-1.68,4.46-3.29,6.76-4.82,1.42-.99,2.88-1.94,4.38-2.81.47-.33.98-.66,1.53-.95,1.39-.88,2.81-1.68,4.23-2.48,1.64-.91,3.25-1.79,4.89-2.63.29-.15.58-.29.88-.44,1.79-.91,3.62-1.75,5.44-2.59.37-.15.73-.33,1.1-.48,1.61-.73,3.25-1.39,4.89-2.04,2.34-.95,4.67-1.82,7.08-2.63.91-.29,1.83-.58,2.74-.88,0,0,.04,0,.04-.04.15-.04.29-.07.44-.11-.15.04-.29.07-.48.15-11.5,9.93-21.73,23.77-30.01,40.97-8.47-2.88-16.43-6.28-23.7-10.11.15-.15.33-.29.47-.4Zm92.06,184.66c-21.8.44-43.34,3.61-62.88,9.28-9.68-23.19-15.19-50.9-15.81-79.53h78.69v70.26Zm0-81.21h-78.69c.59-28.88,6.03-56.2,15.81-79.57,19.54,5.7,41.08,8.87,62.88,9.31v70.25ZM50.97,56.69c8.32,4.6,17.49,8.69,27.39,12.12-10.08,24.5-15.7,52.91-16.29,82.89H11.06c1.31-35.71,15.34-69.12,39.91-95.01ZM11.06,162.66h51.01c.62,29.72,6.32,58.54,16.29,82.89-9.86,3.43-19.02,7.48-27.35,12.12-24.32-25.63-38.6-59.59-39.95-95.01Zm102.02,133.97l-.04-.04-.04-.04c-7.89-2.41-15.48-5.55-22.82-9.39-3.87-1.97-7.67-4.12-11.36-6.54-.07,0-.18-.07-.26-.15-.84-.51-1.64-1.06-2.48-1.64-.15-.04-.29-.15-.44-.29-.44-.26-.91-.55-1.35-.91-.07,0-.11-.04-.18-.11-.37-.22-.8-.51-1.17-.84-1.83-1.24-3.65-2.59-5.44-4.05-.88-.62-1.72-1.28-2.56-2.01-.66-.51-1.31-1.02-1.93-1.61-.29-.22-.55-.44-.8-.69-1.02-.84-2.05-1.72-3.03-2.63.04,0,.04-.04.07-.04,7.23-3.84,15.12-7.23,23.59-10.12.04.07.07.18.11.26,8.29,17.09,18.59,30.89,30.05,40.75.66.22,1.35.44,2.01.66-.66-.18-1.32-.37-1.94-.58Zm-19.65-44.37c18.15-5.11,38.09-7.96,58.28-8.4v59.19c-22.38-2.56-43.42-20.85-58.28-50.79ZM151.72,11.27v59.23c-20.19-.44-40.13-3.32-58.32-8.44,14.9-29.98,35.79-48.2,58.32-50.79v-.18c-1.1.04-2.19.07-3.25.15,1.06-.07,2.15-.11,3.25-.18,1.13-.04,2.3-.07,3.43-.07-1.13.04-2.3.15-3.43.29Zm151.61,140.44h-51.05c-.58-29.94-6.17-58.39-16.29-82.89,9.89-3.43,19.06-7.52,27.42-12.12,24.57,25.89,38.6,59.3,39.91,95.01Zm-140.66,0v-70.25c21.8-.44,43.31-3.62,62.84-9.28,9.78,23.37,15.23,50.68,15.81,79.53h-78.65Zm78.65,10.95c-.62,28.63-6.14,56.38-15.81,79.57-19.54-5.7-41.08-8.87-62.84-9.31v-70.26h78.65Zm-25.93-139.67c.66.26,1.28.55,1.94.84.15.07.33.15.51.22,1.68.77,3.29,1.57,4.93,2.37.29.15.58.29.88.44,1.64.84,3.29,1.72,4.89,2.63,1.42.8,2.85,1.61,4.23,2.48.62.37,1.24.73,1.86,1.13,1.68,1.06,3.32,2.12,4.93,3.21.11.07.18.15.29.22,1.54,1.06,3.07,2.15,4.57,3.25,2.04,1.53,4.02,3.1,5.99,4.71,1.42,1.21,2.81,2.41,4.2,3.65.18.15.4.33.58.51-7.27,3.8-15.15,7.19-23.66,10.11-8.29-17.2-18.51-31.08-30.02-40.97,4.71,1.46,9.35,3.21,13.88,5.18Zm-55.1-11.94c-.29-.04-.58-.04-.88-.04-.4-.04-.8-.07-1.17-.07.33,0,.66,0,1.02.04.29,0,.55.04.84.04.07,0,.11,0,.18.04.8,0,1.57,0,2.37.04.37,0,.77.04,1.13.07-.37-.04-.77-.04-1.13-.04v.15c22.53,2.56,43.42,20.78,58.28,50.83-18.15,5.11-38.09,7.96-58.28,8.4V11.27c-.8-.11-1.57-.18-2.37-.22Zm2.37,292.01v-59.19c20.19.44,40.13,3.29,58.28,8.44-14.9,29.91-35.89,48.2-58.28,50.75Zm90.01-35.2c-.33.33-.62.62-.95.84q-.04.07-.07.04c-1.24,1.13-2.48,2.15-3.76,3.1-.33.33-.69.58-1.02.8-.66.55-1.31,1.06-1.97,1.57-1.06.77-2.12,1.57-3.21,2.3-.37.29-.73.55-1.13.8-.88.62-1.75,1.24-2.67,1.79-.8.58-1.61,1.1-2.45,1.57-.84.58-1.68,1.13-2.56,1.61-.11.11-.22.18-.37.22-.58.4-1.17.77-1.79,1.06-.18.18-.4.29-.66.37-.88.58-1.79,1.1-2.7,1.54-1.13.66-2.3,1.28-3.47,1.86-.88.47-1.75.91-2.63,1.31-1.02.51-2.04,1.02-3.1,1.46-.88.44-1.79.84-2.7,1.2-1.02.48-2.08.91-3.14,1.31-.99.44-2.01.84-3.07,1.24-1.17.44-2.34.88-3.54,1.28-1.06.4-2.12.73-3.18,1.06-.37.15-.77.29-1.17.37,11.47-9.86,21.76-23.66,30.05-40.75.04-.07.07-.15.11-.22,8.44,2.88,16.36,6.24,23.59,10.08.04,0,.04.04.07.04-.84.77-1.68,1.5-2.52,2.15Zm10.7-10.19c-8.33-4.64-17.49-8.73-27.39-12.12,9.97-24.36,15.66-53.17,16.29-82.89h51.05c-1.35,35.38-15.66,69.34-39.95,95.01Z"/>
  </g>
</svg>