<?xml version="1.0" encoding="UTF-8"?>
<svg id="Layer_2" data-name="Layer 2" xmlns="http://www.w3.org/2000/svg" viewBox="0 0 559.12 70.2">
  <defs>
    <style>
      .cls-1 {
        fill: #80e0c1;
      }

      .cls-1, .cls-2, .cls-3, .cls-4, .cls-5, .cls-6 {
        stroke: #475569;
        stroke-miterlimit: 10;
      }

      .cls-2 {
        fill: #0086c2;
      }

      .cls-3 {
        fill: #00a7f2;
      }

      .cls-4 {
        fill: #f74357;
      }

      .cls-5 {
        fill: #66b39a;
      }

      .cls-6 {
        fill: #c63646;
      }

      .cls-7 {
        fill: #475569;
      }
    </style>
  </defs>
  <g id="TechSupport">
    <path class="cls-7" d="m558.28,28.91v2.67h-12.61v-2.67h12.61Zm-8.67-6.33h3.08v25.86c0,1.1.19,1.96.57,2.59.38.62.87,1.07,1.48,1.32.61.26,1.26.39,1.94.39.4,0,.75-.03,1.03-.08.29-.05.54-.11.76-.16l.65,2.77c-.3.11-.67.22-1.1.32-.44.1-.97.15-1.62.15-1.12,0-2.21-.25-3.24-.74s-1.89-1.23-2.55-2.2c-.67-.98-1-2.19-1-3.63v-26.58Z"/>
    <path class="cls-7" d="m530.74,55.34v-26.43h2.98v4.06h.22c.53-1.33,1.45-2.41,2.76-3.23,1.31-.82,2.8-1.23,4.46-1.23.25,0,.53,0,.84.02s.57.02.77.03v3.11c-.14-.02-.38-.06-.72-.1s-.72-.07-1.12-.07c-1.38,0-2.6.29-3.67.87-1.07.58-1.92,1.38-2.54,2.4-.62,1.02-.93,2.19-.93,3.49v17.07h-3.06Z"/>
    <path class="cls-7" d="m513.71,55.89c-2.28,0-4.3-.58-6.05-1.74-1.75-1.16-3.12-2.76-4.1-4.81-.99-2.05-1.48-4.41-1.48-7.1s.49-5.09,1.48-7.15c.99-2.06,2.35-3.66,4.1-4.82,1.75-1.15,3.76-1.73,6.05-1.73s4.3.58,6.04,1.74c1.74,1.16,3.11,2.76,4.1,4.82s1.49,4.43,1.49,7.14-.49,5.05-1.48,7.1-2.35,3.65-4.1,4.81c-1.75,1.16-3.76,1.74-6.05,1.74Zm0-2.8c1.83,0,3.39-.49,4.66-1.48s2.24-2.3,2.9-3.94c.66-1.64.99-3.45.99-5.42s-.33-3.79-.99-5.44c-.66-1.65-1.63-2.98-2.9-3.97s-2.83-1.5-4.66-1.5-3.38.5-4.65,1.5c-1.28,1-2.25,2.32-2.91,3.97-.66,1.65-.99,3.46-.99,5.44s.33,3.78.99,5.42c.66,1.64,1.63,2.95,2.9,3.94s2.83,1.48,4.66,1.48Z"/>
    <path class="cls-7" d="m475.77,65.25V28.91h2.98v5.04h.36c.37-.79.87-1.6,1.51-2.43.64-.83,1.49-1.53,2.55-2.11,1.06-.57,2.4-.86,4.02-.86,2.18,0,4.09.57,5.72,1.71,1.63,1.14,2.91,2.74,3.82,4.78s1.37,4.43,1.37,7.15-.46,5.12-1.37,7.17c-.91,2.05-2.18,3.65-3.82,4.8-1.63,1.15-3.53,1.72-5.69,1.72-1.59,0-2.93-.29-4-.86-1.07-.57-1.94-1.28-2.6-2.12-.66-.84-1.17-1.67-1.52-2.47h-.28v14.81h-3.06Zm3.03-23.11c0,2.13.32,4.02.96,5.67.64,1.65,1.55,2.94,2.75,3.87,1.2.94,2.65,1.4,4.36,1.4s3.24-.48,4.45-1.45c1.21-.97,2.13-2.28,2.77-3.93.64-1.65.96-3.5.96-5.56s-.31-3.86-.94-5.49c-.62-1.63-1.54-2.92-2.76-3.88-1.22-.96-2.71-1.44-4.47-1.44s-3.18.46-4.39,1.39c-1.2.92-2.12,2.2-2.74,3.82-.62,1.62-.94,3.49-.94,5.6Z"/>
    <path class="cls-7" d="m448.03,65.25V28.91h2.98v5.04h.36c.37-.79.87-1.6,1.51-2.43.64-.83,1.49-1.53,2.55-2.11,1.06-.57,2.4-.86,4.02-.86,2.18,0,4.09.57,5.72,1.71,1.63,1.14,2.91,2.74,3.82,4.78s1.37,4.43,1.37,7.15-.46,5.12-1.37,7.17c-.91,2.05-2.18,3.65-3.82,4.8-1.63,1.15-3.53,1.72-5.69,1.72-1.59,0-2.93-.29-4-.86-1.07-.57-1.94-1.28-2.6-2.12-.66-.84-1.17-1.67-1.52-2.47h-.28v14.81h-3.06Zm3.03-23.11c0,2.13.32,4.02.96,5.67.64,1.65,1.55,2.94,2.75,3.87,1.2.94,2.65,1.4,4.36,1.4s3.24-.48,4.45-1.45c1.21-.97,2.13-2.28,2.77-3.93.64-1.65.96-3.5.96-5.56s-.31-3.86-.94-5.49c-.62-1.63-1.54-2.92-2.76-3.88-1.22-.96-2.71-1.44-4.47-1.44s-3.18.46-4.39,1.39c-1.2.92-2.12,2.2-2.74,3.82-.62,1.62-.94,3.49-.94,5.6Z"/>
    <path class="cls-7" d="m438.21,45.24v-16.33h3.06v26.43h-3.06v-4.39h-.24c-.62,1.35-1.6,2.48-2.94,3.38-1.34.9-2.98,1.35-4.92,1.35-1.69,0-3.18-.37-4.49-1.11s-2.33-1.83-3.08-3.26c-.75-1.43-1.12-3.19-1.12-5.28v-17.12h3.06v16.93c0,2.06.61,3.72,1.82,4.98s2.78,1.88,4.68,1.88c1.19,0,2.34-.29,3.44-.86,1.1-.57,2.01-1.41,2.72-2.52.71-1.11,1.07-2.47,1.07-4.09Z"/>
    <path class="cls-7" d="m412.17,28.91c-.2-1.96-1.06-3.52-2.6-4.68s-3.47-1.74-5.8-1.74c-1.64,0-3.08.28-4.33.84-1.25.56-2.22,1.34-2.92,2.33-.71.99-1.06,2.12-1.06,3.38,0,.93.2,1.74.6,2.44.4.7.94,1.3,1.63,1.8.68.5,1.44.93,2.27,1.28.83.36,1.67.65,2.52.89l3.72,1.07c1.12.31,2.25.71,3.37,1.19s2.15,1.09,3.09,1.81c.93.73,1.69,1.62,2.25,2.67.57,1.05.85,2.31.85,3.78,0,1.88-.49,3.57-1.46,5.08-.97,1.5-2.37,2.69-4.2,3.57-1.82.88-4.01,1.32-6.55,1.32-2.4,0-4.48-.4-6.25-1.2-1.77-.8-3.15-1.9-4.16-3.31-1.01-1.41-1.58-3.05-1.7-4.9h3.3c.12,1.39.57,2.56,1.38,3.53.8.96,1.85,1.7,3.13,2.19,1.29.5,2.72.75,4.3.75,1.75,0,3.32-.29,4.69-.89,1.37-.59,2.45-1.42,3.23-2.48.79-1.06,1.18-2.3,1.18-3.71,0-1.19-.31-2.19-.93-3-.62-.81-1.48-1.49-2.59-2.04-1.11-.55-2.39-1.04-3.85-1.46l-4.21-1.24c-2.76-.83-4.91-1.97-6.43-3.42-1.53-1.46-2.29-3.31-2.29-5.57,0-1.89.51-3.56,1.52-5,1.01-1.44,2.39-2.56,4.13-3.37s3.69-1.21,5.86-1.21,4.13.4,5.82,1.2,3.03,1.91,4.02,3.31c.99,1.4,1.52,3,1.59,4.79h-3.11Z"/>
    <path class="cls-7" d="m368.99,38.82v16.52h-3.06V20.1h3.06v12.96h.27c.62-1.36,1.58-2.45,2.88-3.27,1.3-.81,2.95-1.22,4.95-1.22,1.79,0,3.36.37,4.71,1.1,1.35.73,2.41,1.82,3.17,3.25.76,1.43,1.13,3.2,1.13,5.3v17.12h-3.08v-16.93c0-2.18-.61-3.9-1.82-5.15s-2.84-1.88-4.89-1.88c-1.41,0-2.67.3-3.77.89-1.1.6-1.97,1.45-2.61,2.57-.64,1.12-.95,2.45-.95,3.98Z"/>
    <path class="cls-7" d="m350.65,55.89c-2.36,0-4.42-.59-6.17-1.77-1.75-1.18-3.11-2.8-4.07-4.85-.96-2.05-1.45-4.39-1.45-7.02s.49-5.01,1.47-7.07c.98-2.06,2.34-3.68,4.09-4.86s3.77-1.76,6.07-1.76c1.77,0,3.37.34,4.8,1.02,1.43.68,2.62,1.64,3.55,2.87.93,1.23,1.52,2.67,1.76,4.31h-3.1c-.32-1.49-1.09-2.77-2.31-3.83s-2.77-1.59-4.65-1.59c-1.69,0-3.18.46-4.47,1.37-1.3.91-2.31,2.18-3.04,3.8-.73,1.62-1.09,3.5-1.09,5.63s.36,4.04,1.07,5.69c.71,1.65,1.71,2.93,3,3.86,1.29.93,2.8,1.39,4.53,1.39,1.17,0,2.24-.22,3.21-.66s1.78-1.07,2.44-1.88c.66-.81,1.1-1.78,1.33-2.91h3.1c-.23,1.59-.79,3.01-1.69,4.26-.9,1.24-2.06,2.22-3.49,2.93-1.43.71-3.06,1.07-4.9,1.07Z"/>
    <path class="cls-7" d="m324.27,55.89c-2.47,0-4.6-.58-6.4-1.73-1.8-1.15-3.19-2.75-4.17-4.8-.98-2.05-1.47-4.41-1.47-7.08s.49-5.03,1.47-7.1c.98-2.07,2.34-3.69,4.08-4.87,1.74-1.18,3.75-1.76,6.03-1.76,1.43,0,2.82.26,4.15.78,1.33.52,2.53,1.32,3.59,2.39,1.06,1.07,1.9,2.42,2.52,4.04.62,1.62.93,3.54.93,5.75v1.51h-20.65v-2.7h17.52c0-1.7-.34-3.23-1.02-4.59-.68-1.36-1.63-2.43-2.84-3.23-1.21-.79-2.61-1.19-4.19-1.19-1.67,0-3.15.45-4.42,1.34-1.27.89-2.27,2.08-2.98,3.54-.72,1.47-1.08,3.07-1.09,4.82v1.62c0,2.1.36,3.93,1.09,5.5.73,1.57,1.76,2.78,3.11,3.64,1.34.86,2.93,1.29,4.77,1.29,1.25,0,2.35-.2,3.29-.58s1.74-.92,2.39-1.57,1.14-1.38,1.47-2.18l2.91.95c-.4,1.11-1.06,2.14-1.97,3.08-.91.94-2.05,1.69-3.41,2.26-1.36.57-2.92.85-4.69.85Z"/>
    <path class="cls-7" d="m287.72,22.99v-2.89h25.55v2.89h-11.17v32.35h-3.22V22.99h-11.17Z"/>
  </g>
  <g id="Integra">
    <path class="cls-1" d="m262.79,56.33c-2.26,0-4.28-.4-6.05-1.19s-3.17-1.97-4.19-3.53c-1.02-1.56-1.54-3.51-1.54-5.85,0-1.97.36-3.63,1.08-4.96.72-1.34,1.71-2.42,2.96-3.23s2.67-1.43,4.26-1.85c1.59-.42,3.27-.71,5.02-.88,2.06-.22,3.72-.42,4.99-.61,1.26-.19,2.18-.48,2.75-.87s.85-.95.85-1.71v-.14c0-1.46-.46-2.59-1.37-3.39-.92-.8-2.21-1.2-3.89-1.2-1.77,0-3.18.39-4.22,1.17-1.05.78-1.74,1.75-2.08,2.92l-9.1-.74c.46-2.15,1.37-4.02,2.72-5.6,1.35-1.58,3.11-2.79,5.25-3.65s4.64-1.28,7.47-1.28c1.97,0,3.86.23,5.67.69,1.81.46,3.42,1.18,4.82,2.15,1.41.97,2.52,2.21,3.34,3.73.82,1.52,1.22,3.33,1.22,5.44v23.92h-9.33v-4.92h-.28c-.57,1.11-1.33,2.08-2.29,2.92-.95.84-2.1,1.49-3.44,1.96-1.34.47-2.89.7-4.64.7Zm2.82-6.79c1.45,0,2.72-.29,3.83-.87,1.11-.58,1.98-1.36,2.61-2.34.63-.99.95-2.1.95-3.35v-3.76c-.31.2-.73.38-1.26.54-.53.16-1.13.31-1.79.44s-1.32.25-1.99.35c-.66.1-1.26.19-1.8.27-1.15.17-2.16.44-3.02.81-.86.37-1.53.87-2.01,1.49s-.72,1.4-.72,2.32c0,1.34.49,2.36,1.47,3.06s2.22,1.05,3.73,1.05Z"/>
    <path class="cls-1" d="m228.26,55.66V20.2h9.54v6.19h.37c.65-2.2,1.73-3.87,3.26-5,1.52-1.13,3.28-1.7,5.26-1.7.49,0,1.02.03,1.59.09s1.07.15,1.5.25v8.73c-.46-.14-1.1-.26-1.92-.37s-1.56-.16-2.24-.16c-1.45,0-2.74.31-3.87.93-1.13.62-2.02,1.49-2.68,2.6-.65,1.11-.98,2.39-.98,3.83v20.06h-9.84Z"/>
    <path class="cls-1" d="m205.16,69.7c-3.19,0-5.91-.44-8.18-1.3-2.27-.87-4.07-2.05-5.41-3.54s-2.21-3.17-2.61-5.03l9.1-1.22c.28.71.72,1.37,1.32,1.99.6.62,1.4,1.11,2.39,1.49.99.38,2.2.57,3.64.57,2.14,0,3.91-.52,5.3-1.56,1.39-1.04,2.09-2.77,2.09-5.21v-6.49h-.42c-.43.99-1.08,1.92-1.94,2.79-.86.88-1.97,1.59-3.32,2.15s-2.97.83-4.85.83c-2.66,0-5.08-.62-7.26-1.86-2.18-1.24-3.91-3.14-5.19-5.7-1.29-2.56-1.93-5.81-1.93-9.73s.65-7.37,1.96-10.07,3.05-4.71,5.23-6.05c2.18-1.34,4.57-2.01,7.17-2.01,1.99,0,3.65.33,4.99,1s2.42,1.5,3.24,2.49c.82.99,1.46,1.97,1.9,2.92h.37v-5.96h9.77v35.81c0,3.02-.74,5.54-2.22,7.57s-3.52,3.56-6.13,4.58c-2.61,1.02-5.61,1.54-8.99,1.54Zm.21-21.93c1.59,0,2.93-.4,4.03-1.19,1.1-.79,1.95-1.93,2.54-3.42.59-1.49.89-3.27.89-5.35s-.29-3.88-.88-5.41c-.59-1.53-1.43-2.72-2.54-3.57s-2.46-1.27-4.04-1.27-2.98.44-4.09,1.3c-1.11.87-1.95,2.07-2.52,3.61-.57,1.54-.85,3.32-.85,5.33s.29,3.81.87,5.3c.58,1.49,1.42,2.63,2.52,3.44,1.1.81,2.46,1.21,4.07,1.21Z"/>
    <path class="cls-1" d="m168.64,56.36c-3.65,0-6.78-.74-9.41-2.23-2.62-1.48-4.64-3.59-6.06-6.33s-2.12-5.97-2.12-9.71.71-6.85,2.12-9.6,3.41-4.9,5.99-6.44c2.58-1.54,5.61-2.31,9.08-2.31,2.34,0,4.52.37,6.55,1.12,2.02.75,3.79,1.87,5.31,3.36,1.52,1.49,2.7,3.37,3.54,5.62.85,2.26,1.27,4.89,1.27,7.91v2.7l-24.14-.03.04-6.08h14.85c0-1.41-.31-2.66-.92-3.76-.62-1.09-1.47-1.95-2.55-2.57-1.08-.62-2.34-.94-3.77-.94s-2.81.34-3.96,1.03c-1.15.69-2.04,1.6-2.69,2.75s-.98,2.42-.99,3.82v5.79c0,1.75.33,3.27.98,4.55.65,1.28,1.58,2.26,2.78,2.96,1.2.69,2.62,1.04,4.27,1.04,1.09,0,2.09-.15,3-.46.91-.31,1.69-.77,2.33-1.38.65-.62,1.14-1.37,1.48-2.26l9.1.6c-.46,2.19-1.4,4.09-2.83,5.71-1.42,1.62-3.26,2.89-5.49,3.79-2.24.9-4.82,1.35-7.75,1.35Z"/>
    <path class="cls-1" d="m133.62,11.71v8.5s-4.85,0-4.85,0v7.39s4.85,0,4.85,0c0,0,0,18.4,0,18.47.05.6-.46,6.64,5.6,9.14,5.31,2.19,11.56.02,11.56.02l-1.55-7.32s-1.53.3-1.6.3c-3.47.31-4.14-1.43-4.17-2.72,0-.17,0-17.9,0-17.9h6.67s0-7.39,0-7.39h-6.67s0-8.5,0-8.5h-9.84Z"/>
    <path class="cls-1" d="m103.81,35.16v20.5h-9.84V20.2h9.37v6.26h.42c.79-2.06,2.1-3.7,3.95-4.91,1.85-1.21,4.09-1.81,6.72-1.81,2.46,0,4.61.54,6.44,1.62,1.83,1.08,3.26,2.61,4.27,4.61,1.02,1.99,1.52,4.37,1.52,7.12v22.58h-9.83v-20.83c.01-2.17-.54-3.87-1.66-5.09-1.12-1.22-2.67-1.84-4.64-1.84-1.32,0-2.49.29-3.5.85-1.01.57-1.79,1.4-2.36,2.48-.56,1.09-.85,2.39-.87,3.91Z"/>
    <path class="cls-1" d="m87.9,8.38v47.28h-10V8.38h10Z"/>
  </g>
  <g id="Logo">
    <path class="cls-5" d="m43.54,9.35c.65-1.37,4.92-7,6.05-8.32,1.24,4.35,2.38,14.44,2.55,22.46-.06.04-7.88-13.13-8.6-14.14Z"/>
    <path class="cls-6" d="m55.63,55.3c.46-.05,4.68,8.71,4.6,8.91-6.52-1.32-16.01-6.16-19.91-8.99.39-.07,14.44.18,15.31.08Z"/>
    <path class="cls-2" d="m.94,41.55c3.98-4.88,10.26-9.91,16.03-13.45-.21.95-6.59,14.02-6.87,14.03-1.23.01-6.31-.16-9.16-.58Z"/>
    <path class="cls-1" d="m43.54,9.35c-7.55,10.74-13.86,22.42-20.07,34-4.51.1-9.26.09-13.67-.59,6.3-14.25,14.17-27.95,23.94-40.16,3.48-2.2,11.43-2.06,15.56-1.8-2.02,2.79-4.01,5.59-5.76,8.55Z"/>
    <path class="cls-3" d="m49.12,43.44c.86-.13,6.85,11.25,6.73,11.87-1.78.21-44.05-.3-46.95-1.12-2.19-.62-8.03-12.14-8.18-12.37-.07-.11,46.31,1.94,48.4,1.62Z"/>
    <path class="cls-4" d="m66.46,50.25c.13,1.45-3.97,9.4-6.07,13.74-7.71-14.34-24.89-41.56-24.53-42.75.2-.65,6.78-10.56,7.69-11.89,2.24,1.73,22.73,38.84,22.92,40.9Z"/>
  </g>
</svg>