<?xml version="1.0" encoding="UTF-8"?>
<svg id="Layer_2" data-name="Layer 2" xmlns="http://www.w3.org/2000/svg" viewBox="0 0 150.33 145.33">
  <defs>
    <style>
      .cls-1 {
        fill: #00a7f2;
      }

      .cls-2 {
        fill: #f74357;
      }

      .cls-3 {
        fill: #0086c2;
      }

      .cls-4 {
        fill: #c63646;
      }

      .cls-5 {
        fill: #80e0c1;
      }

      .cls-6 {
        fill: #66b39a;
      }
    </style>
  </defs>
  <g id="logo">
    <g>
      <path class="cls-6" d="m97.91,19.88c1.49-3.14,11.25-16.01,13.85-19.03,2.84,9.94,5.45,33.03,5.82,51.36-.15.1-18.03-30.03-19.67-32.33Z"/>
      <path class="cls-4" d="m125.56,124.97c1.04-.11,10.71,19.91,10.52,20.37-14.91-3.03-36.62-14.09-45.54-20.55.89-.15,33.01.4,35.02.19Z"/>
      <path class="cls-3" d="m.5,93.51c9.1-11.17,23.46-22.67,36.66-30.76-.48,2.17-15.08,32.07-15.71,32.07-2.8.03-14.44-.37-20.95-1.32Z"/>
      <path class="cls-5" d="m97.91,19.88c-17.26,24.57-31.69,51.27-45.9,77.76-10.3.22-21.18.2-31.25-1.35C35.15,63.69,53.16,32.36,75.51,4.45,83.47-.58,101.65-.27,111.09.32c-4.61,6.38-9.18,12.77-13.17,19.56Z"/>
      <path class="cls-1" d="m110.68,97.83c1.97-.3,15.66,25.72,15.4,27.15-4.06.47-100.73-.7-107.37-2.56C13.7,121.01.35,94.65,0,94.13c-.16-.24,105.91,4.43,110.68,3.71Z"/>
      <path class="cls-2" d="m150.32,113.41c.3,3.31-9.07,21.49-13.88,31.43-17.63-32.79-56.93-95.05-56.11-97.78.45-1.49,15.5-24.14,17.58-27.19,5.12,3.97,51.98,88.81,52.41,93.53Z"/>
    </g>
  </g>
</svg>