<?xml version="1.0" encoding="UTF-8"?>
<svg id="Layer_2" data-name="Layer 2" xmlns="http://www.w3.org/2000/svg" xmlns:xlink="http://www.w3.org/1999/xlink" viewBox="0 0 64 63.81">
  <defs>
    <style>
      .cls-1 {
        fill: #fff;
      }

      .cls-2 {
        fill: url(#New_Gradient_Swatch_copy_2);
      }

      .cls-3 {
        fill: url(#New_Gradient_Swatch_copy_20);
      }

      .cls-4 {
        fill: url(#New_Gradient_Swatch_copy_20-2);
      }

      .cls-5 {
        fill: url(#New_Gradient_Swatch_copy-2);
      }

      .cls-6 {
        fill: url(#New_Gradient_Swatch_copy_17);
      }

      .cls-7 {
        fill: url(#New_Gradient_Swatch_copy);
      }

      .cls-8 {
        fill: url(#New_Gradient_Swatch_copy-3);
      }

      .cls-9 {
        fill: url(#New_Gradient_Swatch_copy_13);
      }
    </style>
    <linearGradient id="New_Gradient_Swatch_copy_17" data-name="New Gradient Swatch copy 17" x1="13.21" y1="27.63" x2="50.34" y2="27.63" gradientUnits="userSpaceOnUse">
      <stop offset="0" stop-color="#ffd774"/>
      <stop offset="1" stop-color="#f5c951"/>
    </linearGradient>
    <linearGradient id="New_Gradient_Swatch_copy_13" data-name="New Gradient Swatch copy 13" x1="2.97" y1="7.03" x2="26.54" y2="7.03" gradientUnits="userSpaceOnUse">
      <stop offset="0" stop-color="#39baf4"/>
      <stop offset="1" stop-color="#00a7f2"/>
    </linearGradient>
    <linearGradient id="New_Gradient_Swatch_copy" data-name="New Gradient Swatch copy" x1="0" y1="16.47" x2="29.51" y2="16.47" gradientUnits="userSpaceOnUse">
      <stop offset="0" stop-color="#5f727a"/>
      <stop offset="1" stop-color="#4c5f68"/>
    </linearGradient>
    <linearGradient id="New_Gradient_Swatch_copy_2" data-name="New Gradient Swatch copy 2" x1="37.46" y1="7.03" x2="61.03" y2="7.03" gradientUnits="userSpaceOnUse">
      <stop offset="0" stop-color="#80e0c1"/>
      <stop offset="1" stop-color="#62cba8"/>
    </linearGradient>
    <linearGradient id="New_Gradient_Swatch_copy-2" data-name="New Gradient Swatch copy" x1="34.49" x2="64" xlink:href="#New_Gradient_Swatch_copy"/>
    <linearGradient id="New_Gradient_Swatch_copy_20" data-name="New Gradient Swatch copy 20" x1="51.24" y1="34.73" x2="7.24" y2="61.04" gradientUnits="userSpaceOnUse">
      <stop offset="0" stop-color="#ff697a"/>
      <stop offset="1" stop-color="#f74357"/>
    </linearGradient>
    <linearGradient id="New_Gradient_Swatch_copy_20-2" data-name="New Gradient Swatch copy 20" x1="50.5" y1="33.51" x2="6.5" y2="59.82" xlink:href="#New_Gradient_Swatch_copy_20"/>
    <linearGradient id="New_Gradient_Swatch_copy-3" data-name="New Gradient Swatch copy" x1="10.52" y1="59.71" x2="53.47" y2="59.71" xlink:href="#New_Gradient_Swatch_copy"/>
  </defs>
  <g id="Layer_1-2" data-name="Layer 1">
    <g>
      <path class="cls-6" d="m50.34,19.58v7.56c0,.6-.49,1.1-1.1,1.1h-16.05v7.44h-2.2v-7.44H14.31c-.6,0-1.1-.5-1.1-1.1v-7.56h2.2v6.46h32.73v-6.46h2.2Z"/>
      <g>
        <path class="cls-9" d="m26.54,1.1v12.95l-.26-.31c-.21-.25-.51-.39-.84-.39H4.07c-.32,0-.63.14-.85.39l-.26.31V1.1c0-.61.49-1.1,1.1-1.1h21.37c.61,0,1.1.49,1.1,1.1Z"/>
        <path class="cls-7" d="m29.37,18.73c-.24.53-.75.85-1.33.85H1.47c-.58,0-1.09-.32-1.33-.85-.24-.52-.16-1.12.21-1.56l2.62-3.12.26-.31c.21-.25.52-.39.85-.39h21.37c.33,0,.64.14.84.39l.26.31,2.62,3.12c.37.44.46,1.04.21,1.56Z"/>
      </g>
      <g>
        <path class="cls-2" d="m61.03,1.1v12.96l-.26-.32c-.21-.25-.51-.39-.84-.39h-21.37c-.32,0-.63.14-.84.39l-.26.31V1.1c0-.61.49-1.1,1.1-1.1h21.37c.6,0,1.1.49,1.1,1.1Z"/>
        <path class="cls-5" d="m63.86,18.73c-.25.53-.76.85-1.33.85h-26.58c-.58,0-1.09-.32-1.33-.85-.24-.52-.16-1.12.21-1.56l2.62-3.12.26-.31c.21-.25.52-.39.84-.39h21.37c.32,0,.63.14.84.39l.26.32,2.62,3.11c.37.44.46,1.04.21,1.56Z"/>
      </g>
      <g>
        <path class="cls-3" d="m47.95,35.68h-31.89c-.61,0-1.1.49-1.1,1.1v19.53l.26-.31c.21-.25.52-.39.84-.39h31.89c.32,0,.63.14.84.39l.26.32v-19.54c0-.61-.5-1.1-1.1-1.1Zm-11.35,16.15c0,.61-.5,1.1-1.1,1.1h-6.99c-.61,0-1.1-.49-1.1-1.1v-5.25c0-.6.49-1.1,1.1-1.1h.24v-1.21c0-1.79,1.46-3.25,3.25-3.25.87,0,1.69.34,2.3.96.62.61.96,1.43.96,2.29v1.21h.24c.6,0,1.1.5,1.1,1.1v5.25Z"/>
        <path class="cls-1" d="m35.49,45.47h-.24v-1.21c0-.87-.34-1.68-.96-2.29-.61-.62-1.43-.96-2.3-.96-1.79,0-3.25,1.46-3.25,3.25v1.21h-.24c-.61,0-1.1.5-1.1,1.1v5.25c0,.61.49,1.1,1.1,1.1h6.99c.6,0,1.1-.49,1.1-1.1v-5.25c0-.6-.5-1.1-1.1-1.1Zm-2.45,0h-2.09v-1.21c0-.57.47-1.04,1.04-1.04.29,0,.54.11.74.31.2.19.31.46.31.73v1.21Z"/>
        <path class="cls-4" d="m33.05,44.26v1.21h-2.09v-1.21c0-.57.47-1.04,1.04-1.04.29,0,.54.11.74.31.2.19.31.46.31.73Z"/>
        <path class="cls-8" d="m53.32,62.86c-.27.59-.84.95-1.49.95H12.17c-.65,0-1.22-.36-1.49-.95-.28-.59-.18-1.26.23-1.76l4.04-4.8.26-.31c.21-.25.52-.39.84-.39h31.89c.32,0,.63.14.84.39l.26.32,4.03,4.79c.42.49.51,1.17.24,1.76Z"/>
      </g>
    </g>
  </g>
</svg>