<?xml version="1.0" encoding="UTF-8"?>
<svg id="Layer_2" data-name="Layer 2" xmlns="http://www.w3.org/2000/svg" viewBox="0 0 510.99 422.47">
  <defs>
    <style>
      .cls-1 {
        fill: #fff;
      }

      .cls-2 {
        fill: #f74357;
      }

      .cls-3 {
        fill: #39baf4;
      }

      .cls-4 {
        fill: #5f727a;
      }
    </style>
  </defs>
  <g id="Layer_1-2" data-name="Layer 1">
    <g>
      <g>
        <rect class="cls-4" width="510.99" height="129.31"/>
        <rect class="cls-1" x="62.49" y="29.68" width="277.05" height="65.66"/>
        <rect class="cls-3" x="97.31" y="29.68" width="207.41" height="12.82"/>
        <rect class="cls-3" x="97.31" y="56.09" width="207.41" height="12.82"/>
        <rect class="cls-3" x="97.31" y="82.51" width="207.41" height="12.82"/>
        <rect class="cls-1" y="129.31" width="510.99" height="17.27"/>
        <rect class="cls-4" y="146.58" width="510.99" height="129.31"/>
        <rect class="cls-1" x="62.49" y="176.25" width="277.05" height="65.66"/>
        <rect class="cls-3" x="97.31" y="176.25" width="207.41" height="12.82"/>
        <rect class="cls-3" x="97.31" y="202.67" width="207.41" height="12.82"/>
        <rect class="cls-3" x="97.31" y="229.09" width="207.41" height="12.82"/>
        <rect class="cls-1" y="275.89" width="510.99" height="17.27"/>
        <rect class="cls-4" y="293.16" width="510.99" height="129.31"/>
        <rect class="cls-1" x="62.49" y="322.83" width="277.05" height="65.66"/>
        <rect class="cls-3" x="97.31" y="322.83" width="207.41" height="12.82"/>
        <rect class="cls-3" x="97.31" y="349.25" width="207.41" height="12.82"/>
        <rect class="cls-3" x="97.31" y="375.66" width="207.41" height="12.82"/>
        <circle class="cls-1" cx="426.47" cy="62.5" r="32.83"/>
        <circle class="cls-1" cx="426.47" cy="209.08" r="32.83"/>
        <circle class="cls-1" cx="426.47" cy="355.66" r="32.83"/>
      </g>
      <path class="cls-2" d="m439.68,62.5c0,7.29-5.91,13.2-13.2,13.2s-13.21-5.91-13.21-13.2,5.91-13.2,13.21-13.2,13.2,5.91,13.2,13.2Z"/>
      <path class="cls-2" d="m439.68,209.08c0,7.29-5.91,13.2-13.2,13.2s-13.21-5.91-13.21-13.2,5.91-13.2,13.21-13.2,13.2,5.91,13.2,13.2Z"/>
      <path class="cls-2" d="m439.68,355.66c0,7.29-5.91,13.2-13.2,13.2s-13.21-5.91-13.21-13.2,5.91-13.2,13.21-13.2,13.2,5.91,13.2,13.2Z"/>
    </g>
  </g>
</svg>