<?xml version="1.0" encoding="UTF-8"?>
<svg id="Layer_2" data-name="Layer 2" xmlns="http://www.w3.org/2000/svg" xmlns:xlink="http://www.w3.org/1999/xlink" viewBox="0 0 64 83.25">
  <defs>
    <style>
      .cls-1 {
        fill: url(#New_Gradient_Swatch_copy_20);
      }

      .cls-2 {
        fill: #64737a;
      }

      .cls-3 {
        fill: url(#New_Gradient_Swatch_copy-2);
      }

      .cls-4 {
        fill: url(#New_Gradient_Swatch_copy_17);
      }

      .cls-5 {
        fill: url(#New_Gradient_Swatch_copy);
      }

      .cls-6 {
        fill: #f4f8fc;
      }

      .cls-7 {
        fill: url(#linear-gradient);
      }
    </style>
    <linearGradient id="New_Gradient_Swatch_copy_20" data-name="New Gradient Swatch copy 20" x1="21.76" y1="12.35" x2="46.45" y2="12.35" gradientUnits="userSpaceOnUse">
      <stop offset="0" stop-color="#ff697a"/>
      <stop offset="1" stop-color="#f74357"/>
    </linearGradient>
    <linearGradient id="New_Gradient_Swatch_copy" data-name="New Gradient Swatch copy" x1="19.03" y1="79.48" x2="27.94" y2="79.48" gradientUnits="userSpaceOnUse">
      <stop offset="0" stop-color="#5f727a"/>
      <stop offset="1" stop-color="#4c5f68"/>
    </linearGradient>
    <linearGradient id="linear-gradient" x1="42.22" y1="78.98" x2="51.8" y2="78.98" gradientUnits="userSpaceOnUse">
      <stop offset="0" stop-color="#5f727a"/>
      <stop offset="1" stop-color="#4c5f68"/>
    </linearGradient>
    <linearGradient id="New_Gradient_Swatch_copy_17" data-name="New Gradient Swatch copy 17" x1="0" y1="52.88" x2="64" y2="52.88" gradientUnits="userSpaceOnUse">
      <stop offset="0" stop-color="#ffd774"/>
      <stop offset="1" stop-color="#f5c951"/>
    </linearGradient>
    <linearGradient id="New_Gradient_Swatch_copy-2" data-name="New Gradient Swatch copy" x1="9.42" y1="48.64" x2="19.38" y2="48.64" xlink:href="#New_Gradient_Swatch_copy"/>
  </defs>
  <g id="Layer_1-2" data-name="Layer 1">
    <g>
      <g>
        <path class="cls-6" d="m30.69,20.01h-.03s.03.01.04.01c0,0,0-.01-.01-.01Zm10.17-14.27s.01.04.01.06c0,0,.03,0,.04.01-.02-.02-.03-.04-.05-.07Z"/>
        <path class="cls-2" d="m30.69,20.01h-.03s.03.01.04.01c0,0,0-.01-.01-.01Zm10.17-14.27s.01.04.01.06c0,0,.03,0,.04.01-.02-.02-.03-.04-.05-.07Z"/>
        <path class="cls-1" d="m38.45.8h0c-.92-.35-1.89-.6-2.9-.71h0c-.47-.06-.96-.09-1.45-.09s-.98.03-1.46.09h-.01c-.17.02-.34.04-.51.07-5.87.95-10.36,6.06-10.36,12.18,0,.7.06,1.37.17,2.04.02.17.06.33.09.49h0c.19.98.51,1.91.93,2.79h.01c.42.9.96,1.75,1.58,2.51h.01c2.26,2.76,5.69,4.52,9.54,4.52,6.8,0,12.34-5.54,12.34-12.35,0-5.27-3.33-9.79-7.99-11.55Zm-1.83,2.58s-.03-.01-.04-.01c0-.02,0-.04,0-.06.02.03.03.05.05.07Zm-10.25,14.2h.03s0,.01,0,.01c0,0-.03,0-.04-.01Z"/>
      </g>
      <path class="cls-5" d="m27.94,78.49l-.75,3.55c-.14.71-.77,1.21-1.48,1.21h-5.17c-.4,0-.79-.17-1.08-.45-.28-.29-.43-.69-.43-1.09l.1-6c.97.46,1.98.89,3.01,1.25.93.34,1.87.64,2.84.89s1.96.47,2.97.64Z"/>
      <path class="cls-7" d="m51.43,82.73c-.29.33-.71.52-1.14.52h-5.24c-.65,0-1.22-.42-1.43-1.04l-1.4-4.16c1-.22,1.97-.5,2.92-.83.98-.31,1.92-.69,2.84-1.09.99-.42,1.94-.91,2.86-1.43l.96,6.82c.06.43-.07.87-.35,1.2Z"/>
      <path class="cls-4" d="m63.98,53.27c-.04-1.31-.21-2.6-.49-3.86-2.6-11.58-14.83-20.36-29.44-20.36-4.63,0-9.06.88-13.03,2.46-2.85-4.21-6.47-4.73-6.69-4.76-.42-.05-.87.08-1.19.36-.32.29-.51.71-.51,1.14v8.27c-2.96,2.52-5.29,5.59-6.77,9.06H1.51c-.84,0-1.51.68-1.51,1.51v15.82c0,.84.68,1.51,1.51,1.51h5.29c2.65,4.84,7,8.74,12.32,11.28.97.46,1.98.89,3.01,1.25.93.34,1.87.64,2.84.89s1.96.47,2.97.64c1.98.34,4.03.52,6.11.52,2.84,0,5.58-.33,8.18-.96,1-.22,1.97-.5,2.92-.83.98-.31,1.92-.69,2.84-1.09.99-.42,1.94-.91,2.86-1.43,7.94-4.49,13.17-12.08,13.17-20.67,0-.26,0-.51-.02-.77Zm-45.09-2.56c-.29.26-.67.39-1.03.39-.4,0-.82-.16-1.11-.48-.9-.98-1.75-1.45-2.52-1.4-.98.05-1.83.93-2.07,1.26-.49.68-1.43.83-2.11.34-.68-.48-.84-1.42-.35-2.1.17-.24,1.75-2.36,4.33-2.52,1.73-.12,3.41.69,4.96,2.37.57.62.52,1.57-.09,2.14Z"/>
      <path class="cls-3" d="m18.89,50.7c-.29.26-.67.39-1.03.39-.4,0-.82-.16-1.11-.48-.9-.98-1.75-1.45-2.52-1.4-.98.05-1.83.93-2.07,1.26-.49.68-1.43.83-2.11.34-.68-.48-.84-1.42-.35-2.1.17-.24,1.75-2.36,4.33-2.52,1.73-.12,3.41.69,4.96,2.37.57.62.52,1.57-.09,2.14Z"/>
    </g>
  </g>
</svg>