<?xml version="1.0" encoding="UTF-8"?>
<svg xmlns="http://www.w3.org/2000/svg" xmlns:xlink="http://www.w3.org/1999/xlink" viewBox="0 0 64 81.68">
  <defs>
    <style>
      .cls-1 {
        fill: #4e99ad;
      }

      .cls-2 {
        fill: #f74357;
      }

      .cls-3 {
        fill: url(#New_Gradient_Swatch_copy_2);
      }

      .cls-4 {
        fill: url(#New_Gradient_Swatch_copy_2-2);
      }

      .cls-5 {
        fill: #b5c6bc;
      }

      .cls-6, .cls-7 {
        fill: none;
      }

      .cls-6, .cls-8 {
        mix-blend-mode: overlay;
        opacity: .3;
      }

      .cls-9 {
        fill: #ccddd4;
      }

      .cls-10 {
        fill: #428c5c;
      }

      .cls-7 {
        isolation: isolate;
      }

      .cls-11 {
        fill: #5f727a;
      }

      .cls-12 {
        fill: #fff;
        opacity: .2;
      }

      .cls-13 {
        fill: #434a59;
      }
    </style>
    <linearGradient id="New_Gradient_Swatch_copy_2" data-name="New Gradient Swatch copy 2" x1="8.5" y1="36.87" x2="29.7" y2="36.87" gradientUnits="userSpaceOnUse">
      <stop offset="0" stop-color="#80e0c1"/>
      <stop offset="1" stop-color="#62cba8"/>
    </linearGradient>
    <linearGradient id="New_Gradient_Swatch_copy_2-2" data-name="New Gradient Swatch copy 2" x1="49.5" y1="57.08" x2="59.57" y2="57.08" xlink:href="#New_Gradient_Swatch_copy_2"/>
  </defs>
  <g class="cls-7">
    <g id="Layer_2" data-name="Layer 2">
      <g id="Layer_1-2" data-name="Layer 1">
        <g>
          <polygon class="cls-9" points="59.43 46.3 4.54 46.3 .05 60.91 63.93 60.91 59.43 46.3"/>
          <g>
            <path class="cls-13" d="m34.61,25.69c-.2,0-.39-.1-.5-.28-.48-.78-1.32-1.25-2.23-1.25s-1.75.47-2.23,1.25c-.17.27-.53.36-.8.19-.27-.17-.36-.53-.19-.8.7-1.13,1.9-1.8,3.22-1.8s2.52.67,3.22,1.8c.17.27.08.63-.19.8-.1.06-.2.09-.31.09Z"/>
            <path class="cls-13" d="m36.65,24.43c-.2,0-.39-.1-.5-.28-.92-1.49-2.52-2.39-4.27-2.39s-3.34.89-4.27,2.39c-.17.27-.53.36-.8.19-.27-.17-.36-.53-.19-.8,1.14-1.84,3.1-2.94,5.26-2.94s4.12,1.1,5.26,2.94c.17.27.08.63-.19.8-.1.06-.2.09-.31.09Z"/>
            <path class="cls-13" d="m38.57,23.24c-.2,0-.39-.1-.5-.28-1.34-2.17-3.66-3.46-6.2-3.46s-4.85,1.29-6.2,3.46c-.17.27-.53.36-.8.19-.27-.17-.36-.53-.19-.8,1.56-2.52,4.24-4.02,7.19-4.02s5.63,1.5,7.19,4.02c.17.27.08.63-.19.8-.1.06-.2.09-.31.09Z"/>
          </g>
          <path class="cls-11" d="m1.63,68.99h60.73c.9,0,1.63.73,1.63,1.63v7.73c0,.9-.73,1.63-1.63,1.63H1.63c-.9,0-1.63-.73-1.63-1.63v-7.73c0-.9.73-1.63,1.63-1.63Z"/>
          <rect class="cls-8" x="2.11" y="71.09" width="59.79" height="6.79"/>
          <circle class="cls-8" cx="32" cy="74.35" r="1.89"/>
          <rect class="cls-13" x="3.04" y="79.98" width="5.62" height="1.7"/>
          <rect class="cls-8" x="3.04" y="79.98" width="5.62" height="1.7"/>
          <rect class="cls-13" x="55.34" y="79.98" width="5.62" height="1.7" transform="translate(116.3 161.67) rotate(180)"/>
          <rect class="cls-8" x="55.34" y="79.98" width="5.62" height="1.7" transform="translate(116.3 161.67) rotate(180)"/>
          <path class="cls-5" d="m0,60.91v4.45c0,2,1.62,3.63,3.63,3.63h56.75c2,0,3.63-1.62,3.63-3.63v-4.45H0Z"/>
          <path class="cls-5" d="m4.54,46.3v-15.38c0-2.22,1.8-4.02,4.02-4.02h19.98c2.18,0,4.26.86,5.8,2.4h0c1.54,1.54,3.63,2.4,5.8,2.4h15.26c2.22,0,4.02,1.8,4.02,4.02v10.58H4.54Z"/>
          <rect class="cls-3" x="8.5" y="31.03" width="21.2" height="11.68"/>
          <rect class="cls-10" x="8.5" y="31.03" width="21.2" height="1.52"/>
          <path class="cls-1" d="m41.91,6.44c-.56,0-1.1.1-1.61.27-.27-3.75-3.39-6.71-7.21-6.71-3.43,0-6.29,2.39-7.04,5.59-.8-.43-1.72-.67-2.7-.67-3.17,0-5.75,2.57-5.75,5.75s2.57,5.75,5.75,5.75h18.56c2.75,0,4.99-2.23,4.99-4.99s-2.23-4.99-4.99-4.99Z"/>
          <polygon class="cls-13" points="15.82 48.26 15.42 50.46 11.78 50.46 12.26 48.26 15.82 48.26"/>
          <polygon class="cls-13" points="10.73 48.26 10.22 50.46 6.58 50.46 7.18 48.26 10.73 48.26"/>
          <polygon class="cls-13" points="25.99 48.26 25.84 50.46 22.2 50.46 22.43 48.26 25.99 48.26"/>
          <polygon class="cls-13" points="51.73 48.26 52.21 50.46 48.56 50.46 48.17 48.26 51.73 48.26"/>
          <polygon class="cls-13" points="46.65 48.26 47 50.46 43.35 50.46 43.09 48.26 46.65 48.26"/>
          <polygon class="cls-13" points="56.82 48.26 57.41 50.46 53.77 50.46 53.25 48.26 56.82 48.26"/>
          <polygon class="cls-13" points="31 55.78 30.97 58.37 27.02 58.37 27.14 55.78 31 55.78"/>
          <polygon class="cls-13" points="25.49 55.78 25.32 58.37 21.37 58.37 21.64 55.78 25.49 55.78"/>
          <polygon class="cls-13" points="19.99 55.78 19.68 58.37 15.72 58.37 16.14 55.78 19.99 55.78"/>
          <polygon class="cls-2" points="47.86 55.78 48.27 58.37 44.32 58.37 44 55.78 47.86 55.78"/>
          <polygon class="cls-13" points="14.48 55.78 14.02 58.37 10.07 58.37 10.63 55.78 14.48 55.78"/>
          <polygon class="cls-4" points="58.86 55.78 59.57 58.37 49.96 58.37 49.5 55.78 58.86 55.78"/>
          <polygon class="cls-13" points="20.91 48.26 20.64 50.46 16.99 50.46 17.34 48.26 20.91 48.26"/>
          <polygon class="cls-13" points="31.07 48.26 31.05 50.46 27.4 50.46 27.51 48.26 31.07 48.26"/>
          <polygon class="cls-13" points="9.89 51.87 9.33 54.26 5.54 54.26 6.19 51.87 9.89 51.87"/>
          <polygon class="cls-13" points="52.51 51.87 53.03 54.26 49.23 54.26 48.81 51.87 52.51 51.87"/>
          <polygon class="cls-13" points="57.8 51.87 58.45 54.26 54.65 54.26 54.1 51.87 57.8 51.87"/>
          <polygon class="cls-13" points="15.17 51.87 14.75 54.26 10.96 54.26 11.48 51.87 15.17 51.87"/>
          <polygon class="cls-13" points="20.47 51.87 20.18 54.26 16.38 54.26 16.76 51.87 20.47 51.87"/>
          <polygon class="cls-13" points="25.75 51.87 25.59 54.26 21.8 54.26 22.05 51.87 25.75 51.87"/>
          <polygon class="cls-13" points="31.04 51.87 31.01 54.26 27.22 54.26 27.33 51.87 31.04 51.87"/>
          <polygon class="cls-13" points="47.23 51.87 47.61 54.26 43.82 54.26 43.53 51.87 47.23 51.87"/>
          <polygon class="cls-13" points="8.98 55.78 8.37 58.37 4.42 58.37 5.13 55.78 8.98 55.78"/>
          <g class="cls-6">
            <path d="m19.1,33.99c-2.01,0-3.63,1.63-3.63,3.63s1.63,3.63,3.63,3.63,3.63-1.63,3.63-3.63-1.63-3.63-3.63-3.63Zm0,6.51c-1.59,0-2.87-1.29-2.87-2.87s1.29-2.87,2.87-2.87,2.87,1.29,2.87,2.87-1.29,2.87-2.87,2.87Z"/>
            <path d="m19.38,37.29c-.43-.15-.6-.26-.6-.42,0-.14.11-.28.43-.28.36,0,.59.11.72.18l.15-.56c-.17-.08-.4-.16-.73-.16v-.44h-.49v.47c-.53.1-.84.44-.84.89,0,.48.36.73.9.91.37.12.53.24.53.44s-.19.31-.48.31c-.32,0-.62-.11-.83-.22l-.15.58c.19.1.51.2.85.21v.47h.49v-.51c.57-.09.88-.47.88-.92s-.24-.73-.83-.94Z"/>
          </g>
          <path class="cls-13" d="m53.38,38.62h-12.97c-.58,0-1.05.47-1.05,1.05s.47,1.05,1.05,1.05h12.97c.58,0,1.05-.47,1.05-1.05s-.47-1.05-1.05-1.05Z"/>
          <path class="cls-9" d="m53.25,30.54l-.59-.53c-.21-.19-.53-.19-.74,0l-.61.55c-.21.19-.53.19-.74,0l-.61-.55c-.21-.19-.53-.19-.74,0l-.61.55c-.21.19-.53.19-.74,0l-.61-.55c-.21-.19-.53-.19-.74,0l-.61.55c-.21.19-.53.19-.74,0l-.61-.55c-.21-.19-.53-.19-.74,0l-.61.55c-.21.19-.53.19-.74,0l-.61-.55c-.21-.19-.53-.19-.74,0l-.59.53c-.12.11-.18.25-.18.41v8.76h13.08v-8.76c0-.16-.07-.31-.18-.41Z"/>
          <path class="cls-8" d="m51.29,35.97h-8.78c-.19,0-.34.15-.34.34s.15.34.34.34h8.78c.19,0,.34-.15.34-.34s-.15-.34-.34-.34Z"/>
          <path class="cls-8" d="m51.29,37.86h-8.78c-.19,0-.34.15-.34.34s.15.34.34.34h8.78c.19,0,.34-.15.34-.34s-.15-.34-.34-.34Z"/>
          <path class="cls-8" d="m49.71,32.58c0-.19-.15-.34-.34-.34h-4.93c-.19,0-.34.15-.34.34s.15.34.34.34h4.93c.19,0,.34-.15.34-.34Z"/>
          <path class="cls-8" d="m51.29,34.12h-8.78c-.19,0-.34.15-.34.34s.15.34.34.34h8.78c.19,0,.34-.15.34-.34s-.15-.34-.34-.34Z"/>
          <path class="cls-12" d="m9.59,42.7v-.17l6.7-11.51h8.48l-6.8,11.68h-8.38Zm20.11-10.64v-1.03h-2.61l-6.8,11.68h3.21l6.2-10.64Z"/>
        </g>
      </g>
    </g>
  </g>
</svg>