<?xml version="1.0" encoding="UTF-8"?>
<svg xmlns="http://www.w3.org/2000/svg" viewBox="0 0 482.58 266.35">
  <defs>
    <style>
      .cls-1 {
        fill: #4e99ad;
      }

      .cls-2 {
        fill: #ffa300;
      }

      .cls-3 {
        fill: #b5c6bc;
      }

      .cls-4, .cls-5 {
        fill: none;
      }

      .cls-4, .cls-6 {
        mix-blend-mode: overlay;
        opacity: .3;
      }

      .cls-7 {
        fill: #ccddd4;
      }

      .cls-5 {
        isolation: isolate;
      }

      .cls-8 {
        opacity: .2;
      }

      .cls-8, .cls-9 {
        fill: #fff;
      }

      .cls-9 {
        opacity: .15;
      }

      .cls-10 {
        fill: #e24d5b;
      }

      .cls-11 {
        fill: #62b081;
      }

      .cls-12 {
        fill: #434a59;
      }
    </style>
  </defs>
  <g class="cls-5">
    <g id="Layer_2" data-name="Layer 2">
      <g id="Layer_1-2" data-name="Layer 1">
        <g>
          <g>
            <path class="cls-12" d="m176.29,230.6h-37.53c-18.96,0-34.38-15.42-34.38-34.38v-23.91h6.18v23.91c0,15.55,12.65,28.2,28.2,28.2h37.53c15.55,0,28.2-12.65,28.2-28.2v-11.68h6.18v11.68c0,18.96-15.42,34.38-34.38,34.38Z"/>
            <g class="cls-4">
              <path d="m176.29,230.6h-37.53c-18.96,0-34.38-15.42-34.38-34.38v-23.91h6.18v23.91c0,15.55,12.65,28.2,28.2,28.2h37.53c15.55,0,28.2-12.65,28.2-28.2v-11.68h6.18v11.68c0,18.96-15.42,34.38-34.38,34.38Z"/>
            </g>
          </g>
          <g>
            <polygon class="cls-10" points="0 69.68 0 52.42 66.47 61.05 0 69.68"/>
            <rect class="cls-6" x="36.71" y="22.66" width="3.35" height="76.78" transform="translate(99.44 22.66) rotate(90)"/>
            <path class="cls-3" d="m63.64,45.33l65.99,7.23c5.26.58,9.24,5.02,9.24,10.3h0c0,4.07-2.38,7.76-6.08,9.44l-3.36,1.52c-10.25,4.65-21.37,7.05-32.63,7.05h-41.67l8.5-35.55Z"/>
            <polygon class="cls-3" points="120.32 67.75 125.98 161.53 75.75 163.07 89.92 145.56 75.75 75.48 120.32 67.75"/>
            <path class="cls-12" d="m75.75,163.07v2.52c0,4.73,3.83,8.56,8.56,8.56h25.65c1.56,0,3.08-.42,4.41-1.23l14.14-8.51c4.67-2.81,5.55-9.21,1.83-13.18h0c-3.02-3.22-7.98-3.64-11.5-.97l-7.21,5.47c-5.57,4.23-12.32,6.62-19.32,6.83l-16.56.51Z"/>
            <path class="cls-12" d="m89.92,145.56l2.6-2.84c8.9-9.72,12.66-23.08,10.15-36.01l-.89-4.58c-1.22-6.27-6.55-10.9-12.93-11.23l-10.09-.51,11.16,55.17Z"/>
            <path class="cls-6" d="m68.78,61.05c1.8-5.5,5.14-10.61,7.95-14.28l-13.1-1.44-8.5,35.55h41.67c11.25,0,22.38-2.4,32.63-7.05l3.36-1.52c3.7-1.68,6.08-5.37,6.08-9.44,0-.46-.04-.9-.1-1.34-12.6.94-43.61,2.68-69.98-.48Z"/>
            <path class="cls-12" d="m43.54,47.73v29.75c0,4.45,3.61,8.05,8.05,8.05h1.43c4.02,0,7.42-2.96,7.98-6.94l1.23-8.82c1.25-9.02,5.26-17.43,11.48-24.09l.46-.5c2.79-2.99.39-7.83-3.68-7.42l-19.7,1.97c-4.12.41-7.25,3.88-7.25,8.01Z"/>
          </g>
          <rect class="cls-12" x="175.1" y="0" width="270.27" height="191.41" rx="19.26" ry="19.26"/>
          <rect class="cls-3" x="191.95" y="16.55" width="236.56" height="142.86"/>
          <path class="cls-12" d="m476.81,56.88h-31.45v77.95h31.45c3.19,0,5.77-2.58,5.77-5.77V62.65c0-3.19-2.58-5.77-5.77-5.77Z"/>
          <path class="cls-6" d="m476.81,56.88h-31.45v77.95h31.45c3.19,0,5.77-2.58,5.77-5.77V62.65c0-3.19-2.58-5.77-5.77-5.77Z"/>
          <rect class="cls-6" x="465.03" y="56.88" width="5.12" height="77.95"/>
          <rect class="cls-12" x="272.31" y="191.41" width="75.84" height="55.38"/>
          <rect class="cls-6" x="272.31" y="191.41" width="75.84" height="55.38"/>
          <rect class="cls-6" x="272.31" y="191.41" width="75.84" height="6.33"/>
          <path class="cls-12" d="m381.92,246.79h-143.39c-7.44,0-13.48,6.04-13.48,13.48v6.08h170.35v-6.08c0-7.44-6.04-13.48-13.48-13.48Z"/>
          <rect class="cls-11" x="207.3" y="31.9" width="35.21" height="35.21" rx="6.22" ry="6.22"/>
          <rect class="cls-10" x="265.96" y="31.9" width="35.21" height="35.21" rx="6.22" ry="6.22"/>
          <rect class="cls-2" x="207.3" y="82.06" width="35.21" height="35.21" rx="6.22" ry="6.22"/>
          <rect class="cls-1" x="265.96" y="82.06" width="35.21" height="35.21" rx="6.22" ry="6.22"/>
          <path class="cls-1" d="m242.51,159.41v-20.47c0-3.44-2.78-6.22-6.22-6.22h-22.77c-3.44,0-6.22,2.79-6.22,6.22v20.47h35.21Z"/>
          <path class="cls-11" d="m301.17,159.41v-20.47c0-3.44-2.78-6.22-6.22-6.22h-22.77c-3.44,0-6.22,2.79-6.22,6.22v20.47h35.21Z"/>
          <rect class="cls-7" x="322.47" y="16.55" width="106.04" height="142.86"/>
          <rect class="cls-3" x="343.59" y="37.72" width="63.8" height="15.5"/>
          <g>
            <path class="cls-3" d="m346.2,66.61h58.59c1.44,0,2.61-1.17,2.61-2.61s-1.17-2.61-2.61-2.61h-58.59c-1.44,0-2.61,1.17-2.61,2.61s1.17,2.61,2.61,2.61Z"/>
            <path class="cls-3" d="m404.78,74.04h-58.59c-1.44,0-2.61,1.17-2.61,2.61s1.17,2.61,2.61,2.61h58.59c1.44,0,2.61-1.17,2.61-2.61s-1.17-2.61-2.61-2.61Z"/>
            <path class="cls-3" d="m395.76,86.68h-40.53c-1.44,0-2.61,1.17-2.61,2.61s1.17,2.61,2.61,2.61h40.53c1.44,0,2.61-1.17,2.61-2.61s-1.17-2.61-2.61-2.61Z"/>
          </g>
          <g>
            <path class="cls-10" d="m388.09,118.69h-25.21c-6.08,0-11.01,4.93-11.01,11.01s4.93,11.01,11.01,11.01h25.21c6.08,0,11.01-4.93,11.01-11.01s-4.93-11.01-11.01-11.01Z"/>
            <g>
              <path class="cls-7" d="m362.29,123.62c.83-.14,1.99-.25,3.63-.25s2.84.32,3.63.95c.78.6,1.27,1.59,1.27,2.75s-.37,2.17-1.09,2.82c-.92.85-2.27,1.25-3.86,1.25-.35,0-.67-.02-.92-.07v4.26h-2.66v-11.71Zm2.66,5.39c.23.05.49.07.9.07,1.43,0,2.31-.72,2.31-1.92,0-1.09-.76-1.74-2.11-1.74-.53,0-.9.03-1.09.09v3.5Z"/>
              <path class="cls-7" d="m374.23,132.29l-.85,3.05h-2.76l3.61-11.87h3.52l3.7,11.87h-2.91l-.92-3.05h-3.4Zm3.01-2.01l-.74-2.52c-.21-.7-.42-1.58-.6-2.29h-.04c-.18.71-.35,1.6-.55,2.29l-.7,2.52h2.62Z"/>
              <path class="cls-7" d="m384.1,135.33v-4.86l-3.75-7.01h3.08l1.2,2.85c.37.86.63,1.5.92,2.27h.04c.26-.74.55-1.43.9-2.27l1.2-2.85h3.01l-3.91,6.92v4.95h-2.68Z"/>
            </g>
          </g>
          <path class="cls-12" d="m348.15,206.86h-75.84c-8.47,5.01-8.47,17.26,0,22.27h75.84c8.47-5.01,8.47-17.26,0-22.27Z"/>
          <path class="cls-9" d="m353.73,213.61c-.96-2.68-2.8-5.1-5.58-6.74h-75.84c-2.77,1.64-4.62,4.06-5.58,6.74h86.99Z"/>
          <path class="cls-6" d="m416.99,171.71h-8.77c-5.03,0-9.11,4.08-9.11,9.11v10.6h27v-10.6c0-5.03-4.08-9.11-9.11-9.11Z"/>
          <path class="cls-6" d="m376.41,171.71h-8.77c-5.03,0-9.11,4.08-9.11,9.11v10.6h27v-10.6c0-5.03-4.08-9.11-9.11-9.11Z"/>
          <path class="cls-6" d="m203.47,171.71h8.77c5.03,0,9.11,4.08,9.11,9.11v10.6h-27v-10.6c0-5.03,4.08-9.11,9.11-9.11Z"/>
          <path class="cls-6" d="m244.06,171.71h8.77c5.03,0,9.11,4.08,9.11,9.11v10.6h-27v-10.6c0-5.03,4.08-9.11,9.11-9.11Z"/>
          <path class="cls-8" d="m360.86,159.41h-37.6L406.49,16.55h22.02v26.74l-67.65,116.11Zm-163.98,0h99.27L379.37,16.55h-99.27l-83.23,142.86Z"/>
        </g>
      </g>
    </g>
  </g>
</svg>