<?xml version="1.0" encoding="UTF-8"?>
<svg id="Layer_2" data-name="Layer 2" xmlns="http://www.w3.org/2000/svg" viewBox="0 0 330.8 399.93">
  <defs>
    <style>
      .cls-1 {
        fill: #00a7f2;
      }

      .cls-2 {
        fill: #ff697a;
      }

      .cls-3 {
        fill: #4c5f68;
      }

      .cls-4 {
        fill: #f4be9c;
      }
    </style>
  </defs>
  <g id="Layer_1-2" data-name="Layer 1">
    <g>
      <path class="cls-2" d="m80.22,94.9v32.97h-2.45c-5.76,0-10.46-4.69-10.46-10.46v-12.06c0-5.76,4.69-10.46,10.46-10.46h2.45Z"/>
      <path class="cls-2" d="m263.5,105.35v12.06c0,5.76-4.69,10.46-10.47,10.46h-2.45v-32.97h2.45c5.77,0,10.47,4.69,10.47,10.46Z"/>
      <path class="cls-4" d="m213.89,209.91c-33.34,26.62-64.18,26.29-93.91-.97,9.9-3.07,17.16-4.69,19.67-5.23,13.29,8.69,24.34,9.2,25.62,9.24h.24c1.23-.02,12.75-.42,26.41-9.08,3.35.73,11.42,2.63,21.98,6.03Z"/>
      <path class="cls-1" d="m318.13,343.41c-1.25,2.82-11.47,22.91-46.1,17.3l-3.22-24.32c-.35-2.72-2.84-4.63-5.58-4.28-2.72.36-4.63,2.86-4.27,5.58l3.36,25.49c-6.21,5.7-33.13,26.39-96.93,26.83-63.84-.45-90.76-21.16-96.93-26.83l3.37-25.49c.36-2.72-1.55-5.22-4.27-5.58-2.72-.35-5.22,1.56-5.58,4.28l-3.22,24.32c-34.72,5.63-44.9-14.59-46.09-17.28-6.01-26.98-2.07-51.32,11.72-72.34,20.28-30.93,57.94-49.04,84.9-58.6,18.25,18.15,37.21,27.26,56.75,27.26s38.74-8.7,58.81-26.04c26.65,9.83,62.1,27.71,81.56,57.38,13.78,21.02,17.73,45.36,11.72,72.33Z"/>
      <path class="cls-4" d="m227.89,110.48c-2.38,19.57-6.84,36.51-13.19,50.4-9.31,5.62-19.81,9.05-29.7,9.05h-8.02c-1.44-2.72-4.31-4.58-7.59-4.58h-7.96c-4.73,0-8.58,3.85-8.58,8.58v1.93c0,4.73,3.85,8.58,8.58,8.58h7.96c3.28,0,6.15-1.85,7.59-4.57h8.02c7.08,0,14.33-1.44,21.34-4-4.2,6.17-8.93,11.4-14.16,15.62-13.44,10.84-25.8,11.5-26.76,11.54-.92-.04-12.7-.78-25.85-11.67-12.81-10.63-29.59-33.3-36.67-81-3.8-25.58.58-45.86,13.03-60.29,13.65-15.82,34.49-21.46,49.47-21.46,12.01,0,34.33,2.48,49.04,19.09,12.31,13.91,16.84,35.03,13.45,62.78Z"/>
      <path class="cls-3" d="m314.69,265.61c-29.09-44.32-88.81-63.46-112.62-69.54,8.15-7.47,15.02-16.96,20.57-28.43,11.49-7.58,21.07-18.09,26.3-29.83h4.09c11.25,0,20.39-9.15,20.39-20.39v-12.05c0-9.76-6.9-17.94-16.08-19.92-1.34-23.03-8.55-42.09-21.48-56.7C213.71,3.73,182.21,0,165.4,0c-21.3,0-51.18,8.24-71.14,31.38-8.71,10.1-19.17,27.55-20.97,54.1-9.09,2.05-15.91,10.18-15.91,19.88v12.05c0,11.25,9.15,20.39,20.39,20.39h7.41c2.74,0,4.97-2.22,4.97-4.97v-42.9c0-2.74-2.22-4.97-4.97-4.97h-1.9c1.84-23.17,10.93-38.31,18.51-47.1,17.76-20.59,44.51-27.93,63.61-27.93,15.14,0,43.45,3.3,63.02,25.39,11.22,12.68,17.57,29.36,18.93,49.64h-1.73c-2.74,0-4.97,2.22-4.97,4.97v41.95c-2.28,5.82-5.91,11.37-10.46,16.35,3.39-10.92,5.91-23.11,7.55-36.56,3.74-30.7-1.6-54.44-15.88-70.56-17.28-19.52-42.8-22.43-56.47-22.43-17.17,0-41.16,6.54-56.99,24.9-14.42,16.72-19.58,39.67-15.33,68.23,5.7,38.4,18,66.62,36.58,84.02-23.15,5.82-84.07,24.87-113.54,69.78-15.41,23.48-19.79,50.54-13.03,80.42.05.23.12.46.2.68.13.35,3.39,8.68,12.75,15.59,8.07,5.96,22.43,12.04,45.5,8.03,7.6,7.15,36.41,29.16,103.83,29.62h.06c67.42-.46,96.24-22.46,103.83-29.62,23.07,4.02,37.43-2.07,45.5-8.03,9.36-6.91,12.62-15.24,12.75-15.59.08-.22.15-.45.2-.68,6.76-29.88,2.38-56.94-13.03-80.42ZM80.22,127.87h-2.44c-5.77,0-10.46-4.69-10.46-10.46v-12.05c0-5.77,4.69-10.46,10.46-10.46h2.44v32.97Zm183.27-22.51v12.05c0,5.77-4.69,10.46-10.46,10.46h-2.44v-32.97h2.44c5.77,0,10.46,4.69,10.46,10.46Zm-98.23,107.6s.1,0,.14,0c.03,0,.06,0,.09,0,1.23-.02,12.76-.42,26.41-9.07,3.35.73,11.42,2.63,21.98,6.03-33.34,26.62-64.18,26.29-93.91-.97,9.9-3.06,17.17-4.69,19.67-5.22,13.29,8.69,24.35,9.2,25.62,9.23Zm-62.36-102.61c-3.8-25.57.59-45.85,13.03-60.28,13.64-15.82,34.5-21.45,49.47-21.45,12,0,34.33,2.48,49.03,19.09,12.31,13.9,16.84,35.02,13.45,62.78-2.39,19.58-6.85,36.51-13.19,50.4-9.31,5.62-19.81,9.04-29.71,9.04h-8.02c-1.44-2.72-4.3-4.58-7.58-4.58h-7.96c-4.73,0-8.58,3.85-8.58,8.58v1.93c0,4.73,3.85,8.58,8.58,8.58h7.96c3.29,0,6.14-1.86,7.58-4.58h8.02c7.08,0,14.33-1.43,21.35-3.99-4.2,6.16-8.93,11.39-14.16,15.61-13.43,10.85-25.8,11.5-26.76,11.54-.91-.04-12.7-.78-25.85-11.68-12.82-10.62-29.59-33.3-36.67-81Zm215.23,233.06c-1.25,2.81-11.47,22.91-46.1,17.29l-3.21-24.33c-.36-2.72-2.85-4.63-5.57-4.27-2.72.36-4.63,2.85-4.27,5.57l3.37,25.49c-6.21,5.7-33.14,26.39-96.93,26.83-63.84-.44-90.76-21.16-96.93-26.83l3.37-25.49c.36-2.72-1.55-5.22-4.27-5.57-2.72-.36-5.22,1.55-5.57,4.27l-3.21,24.33c-34.73,5.63-44.91-14.59-46.1-17.29-6.01-26.98-2.07-51.31,11.72-72.34,20.28-30.93,57.95-49.04,84.9-58.59,18.26,18.15,37.21,27.25,56.75,27.25s38.74-8.7,58.8-26.04c26.65,9.84,62.1,27.72,81.56,57.39,13.79,21.02,17.73,45.35,11.72,72.33Z"/>
    </g>
  </g>
</svg>