<?xml version="1.0" encoding="UTF-8"?>
<svg id="Layer_2" data-name="Layer 2" xmlns="http://www.w3.org/2000/svg" viewBox="0 0 64 77.37">
  <defs>
    <style>
      .cls-1 {
        fill: #00a7f2;
      }

      .cls-2 {
        fill: #ff697a;
      }

      .cls-3 {
        fill: #4c5f68;
      }

      .cls-4 {
        fill: #f4be9c;
      }
    </style>
  </defs>
  <g id="Layer_1-2" data-name="Layer 1">
    <g>
      <path class="cls-2" d="m15.52,18.36v6.38h-.47c-1.11,0-2.02-.91-2.02-2.02v-2.33c0-1.11.91-2.02,2.02-2.02h.47Z"/>
      <path class="cls-2" d="m50.98,20.38v2.33c0,1.11-.91,2.02-2.03,2.02h-.47v-6.38h.47c1.12,0,2.03.91,2.03,2.02Z"/>
      <path class="cls-4" d="m41.38,40.61c-6.45,5.15-12.42,5.09-18.17-.19,1.91-.59,3.32-.91,3.81-1.01,2.57,1.68,4.71,1.78,4.96,1.79h.05c.24,0,2.47-.08,5.11-1.76.65.14,2.21.51,4.25,1.17Z"/>
      <path class="cls-1" d="m61.55,66.44c-.24.55-2.22,4.43-8.92,3.35l-.62-4.71c-.07-.53-.55-.9-1.08-.83-.53.07-.9.55-.83,1.08l.65,4.93c-1.2,1.1-6.41,5.1-18.75,5.19-12.35-.09-17.56-4.09-18.75-5.19l.65-4.93c.07-.53-.3-1.01-.83-1.08-.53-.07-1.01.3-1.08.83l-.62,4.71c-6.72,1.09-8.69-2.82-8.92-3.34-1.16-5.22-.4-9.93,2.27-14,3.92-5.98,11.21-9.49,16.42-11.34,3.53,3.51,7.2,5.27,10.98,5.27s7.5-1.68,11.38-5.04c5.16,1.9,12.01,5.36,15.78,11.1,2.67,4.07,3.43,8.78,2.27,13.99Z"/>
      <path class="cls-4" d="m44.09,21.37c-.46,3.79-1.32,7.06-2.55,9.75-1.8,1.09-3.83,1.75-5.75,1.75h-1.55c-.28-.53-.83-.89-1.47-.89h-1.54c-.92,0-1.66.74-1.66,1.66v.37c0,.92.74,1.66,1.66,1.66h1.54c.63,0,1.19-.36,1.47-.88h1.55c1.37,0,2.77-.28,4.13-.77-.81,1.19-1.73,2.21-2.74,3.02-2.6,2.1-4.99,2.22-5.18,2.23-.18,0-2.46-.15-5-2.26-2.48-2.06-5.72-6.44-7.09-15.67-.74-4.95.11-8.87,2.52-11.66,2.64-3.06,6.67-4.15,9.57-4.15,2.32,0,6.64.48,9.49,3.69,2.38,2.69,3.26,6.78,2.6,12.15Z"/>
      <path class="cls-3" d="m60.88,51.39c-5.63-8.58-17.18-12.28-21.79-13.45,1.58-1.45,2.91-3.28,3.98-5.5,2.22-1.47,4.08-3.5,5.09-5.77h.79c2.18,0,3.95-1.77,3.95-3.95v-2.33c0-1.89-1.34-3.47-3.11-3.85-.26-4.46-1.65-8.14-4.16-10.97C41.35.72,35.25,0,32,0c-4.12,0-9.9,1.59-13.76,6.07-1.69,1.95-3.71,5.33-4.06,10.47-1.76.4-3.08,1.97-3.08,3.85v2.33c0,2.18,1.77,3.95,3.95,3.95h1.43c.53,0,.96-.43.96-.96v-8.3c0-.53-.43-.96-.96-.96h-.37c.36-4.48,2.11-7.41,3.58-9.11,3.44-3.98,8.61-5.4,12.31-5.4,2.93,0,8.41.64,12.19,4.91,2.17,2.45,3.4,5.68,3.66,9.6h-.34c-.53,0-.96.43-.96.96v8.12c-.44,1.13-1.14,2.2-2.02,3.16.66-2.11,1.14-4.47,1.46-7.07.72-5.94-.31-10.53-3.07-13.65-3.34-3.78-8.28-4.34-10.93-4.34-3.32,0-7.96,1.27-11.03,4.82-2.79,3.23-3.79,7.68-2.97,13.2,1.1,7.43,3.48,12.89,7.08,16.26-4.48,1.13-16.27,4.81-21.97,13.5-2.98,4.54-3.83,9.78-2.52,15.56.01.04.02.09.04.13.03.07.66,1.68,2.47,3.02,1.56,1.15,4.34,2.33,8.8,1.55,1.47,1.38,7.05,5.64,20.09,5.73h.01c13.04-.09,18.62-4.35,20.09-5.73,4.46.78,7.24-.4,8.8-1.55,1.81-1.34,2.44-2.95,2.47-3.02.02-.04.03-.09.04-.13,1.31-5.78.46-11.02-2.52-15.56ZM15.52,24.74h-.47c-1.12,0-2.02-.91-2.02-2.02v-2.33c0-1.12.91-2.02,2.02-2.02h.47v6.38Zm35.46-4.36v2.33c0,1.12-.91,2.02-2.02,2.02h-.47v-6.38h.47c1.12,0,2.02.91,2.02,2.02Zm-19,20.82s.02,0,.03,0c0,0,.01,0,.02,0,.24,0,2.47-.08,5.11-1.75.65.14,2.21.51,4.25,1.17-6.45,5.15-12.42,5.09-18.17-.19,1.92-.59,3.32-.91,3.81-1.01,2.57,1.68,4.71,1.78,4.96,1.79Zm-12.06-19.85c-.74-4.95.11-8.87,2.52-11.66,2.64-3.06,6.67-4.15,9.57-4.15,2.32,0,6.64.48,9.49,3.69,2.38,2.69,3.26,6.78,2.6,12.15-.46,3.79-1.32,7.06-2.55,9.75-1.8,1.09-3.83,1.75-5.75,1.75h-1.55c-.28-.53-.83-.89-1.47-.89h-1.54c-.92,0-1.66.74-1.66,1.66v.37c0,.92.74,1.66,1.66,1.66h1.54c.64,0,1.19-.36,1.47-.89h1.55c1.37,0,2.77-.28,4.13-.77-.81,1.19-1.73,2.2-2.74,3.02-2.6,2.1-4.99,2.23-5.18,2.23-.18,0-2.46-.15-5-2.26-2.48-2.06-5.72-6.44-7.1-15.67Zm41.64,45.09c-.24.54-2.22,4.43-8.92,3.35l-.62-4.71c-.07-.53-.55-.9-1.08-.83-.53.07-.9.55-.83,1.08l.65,4.93c-1.2,1.1-6.41,5.11-18.75,5.19-12.35-.09-17.56-4.09-18.75-5.19l.65-4.93c.07-.53-.3-1.01-.83-1.08-.53-.07-1.01.3-1.08.83l-.62,4.71c-6.72,1.09-8.69-2.82-8.92-3.34-1.16-5.22-.4-9.93,2.27-13.99,3.92-5.98,11.21-9.49,16.43-11.34,3.53,3.51,7.2,5.27,10.98,5.27s7.49-1.68,11.38-5.04c5.16,1.9,12.02,5.36,15.78,11.1,2.67,4.07,3.43,8.77,2.27,13.99Z"/>
    </g>
  </g>
</svg>