<?xml version="1.0" encoding="UTF-8"?>
<svg id="Layer_2" data-name="Layer 2" xmlns="http://www.w3.org/2000/svg" xmlns:xlink="http://www.w3.org/1999/xlink" viewBox="0 0 64 64">
  <defs>
    <style>
      .cls-1 {
        fill: #fff;
      }

      .cls-2 {
        fill: url(#New_Gradient_Swatch_copy);
      }

      .cls-3 {
        fill: url(#linear-gradient);
      }

      .cls-4 {
        fill: url(#_2);
      }
    </style>
    <linearGradient id="_2" data-name="   2" x1="3.12" y1="30.45" x2="64" y2="30.45" gradientUnits="userSpaceOnUse">
      <stop offset="0" stop-color="#39baf4"/>
      <stop offset="1" stop-color="#00a7f2"/>
    </linearGradient>
    <linearGradient id="New_Gradient_Swatch_copy" data-name="New Gradient Swatch copy" x1="36.2" y1="24.81" x2="42.16" y2="24.81" gradientUnits="userSpaceOnUse">
      <stop offset="0" stop-color="#5f727a"/>
      <stop offset="1" stop-color="#4c5f68"/>
    </linearGradient>
    <linearGradient id="linear-gradient" x1="0" y1="51.77" x2="24.45" y2="51.77" gradientUnits="userSpaceOnUse">
      <stop offset="0" stop-color="#ff697a"/>
      <stop offset="1" stop-color="#f74357"/>
    </linearGradient>
  </defs>
  <g id="Layer_1-2" data-name="Layer 1">
    <g>
      <g>
        <path class="cls-4" d="m62.62,1.38c-1.05-1.05-2.5-1.54-3.97-1.34-7.55,1-21.72,4.19-31.85,14.33-2.13,2.12-4.14,4.38-6,6.69-.08-.02-.16-.03-.25-.02l-13.7.72c-1.42-.13-2.73.59-3.36,1.88-.65,1.33-.4,2.86.64,3.9l8.43,8.42,15.54,15.54,8.38,8.39c.66.66,1.51,1,2.38,1,.51,0,1.03-.12,1.51-.36,1.29-.63,2.02-1.94,1.88-3.36l.72-13.7c0-.09,0-.18-.02-.26,2.28-1.83,4.52-3.84,6.68-6,3.19-3.19,8.94-11.28,11.17-18.5,1.86-5.32,2.75-10.2,3.16-13.36.19-1.48-.29-2.92-1.34-3.97Zm-18.37,28.55l-3.76,3.76c-2.81,2.81-7.37,2.81-10.18,0-2.8-2.8-2.8-7.37,0-10.17l3.76-3.76c1.4-1.41,3.25-2.11,5.09-2.11s3.69.7,5.09,2.11c2.8,2.8,2.8,7.37,0,10.17Z"/>
        <path class="cls-1" d="m44.25,19.76c-1.4-1.41-3.25-2.11-5.09-2.11s-3.69.7-5.09,2.11l-3.76,3.76c-2.8,2.8-2.8,7.37,0,10.17,2.8,2.81,7.37,2.81,10.18,0l3.76-3.76c2.8-2.8,2.8-7.37,0-10.17Zm-2.96,7.17c-1.12,1.12-3.09,1.12-4.22,0-1.16-1.16-1.16-3.06,0-4.22.58-.58,1.35-.87,2.11-.87s1.52.29,2.11.87c1.16,1.16,1.16,3.06,0,4.22Z"/>
      </g>
      <path class="cls-2" d="m41.29,26.93c-1.12,1.12-3.09,1.12-4.22,0-1.16-1.16-1.16-3.06,0-4.22.58-.58,1.35-.87,2.11-.87s1.52.29,2.11.87c1.16,1.16,1.16,3.06,0,4.22Z"/>
      <path class="cls-3" d="m24.44,51.89c-.05.36-.28.67-.6.82L1.63,63.88c-.16.08-.34.12-.51.12-.28,0-.58-.11-.79-.33-.34-.34-.43-.86-.21-1.3l11.17-22.21c.17-.32.47-.55.82-.61.36-.06.72.06.97.31l11.04,11.04c.26.25.37.62.31.97Z"/>
    </g>
  </g>
</svg>