<?xml version="1.0" encoding="UTF-8"?>
<svg id="Layer_2" data-name="Layer 2" xmlns="http://www.w3.org/2000/svg" viewBox="0 0 537.07 366.38">
  <defs>
    <style>
      .cls-1 {
        fill: #57606f;
      }

      .cls-2 {
        fill: #fff;
      }

      .cls-3 {
        fill: #00a7f2;
      }
    </style>
  </defs>
  <g id="Layer_1-2" data-name="Layer 1">
    <g>
      <path class="cls-1" d="m537.07,0v366.38H0V0h537.07Zm-25.01,341.37V25.02H26.49v316.35h485.57Z"/>
      <path class="cls-3" d="m512.05,25.02v316.35H26.49V25.02h485.57ZM233.95,119.19v-61.8H61.8v61.8h172.15Z"/>
      <rect class="cls-2" x="61.8" y="57.39" width="172.15" height="61.8"/>
      <path class="cls-1" d="m233.95,123.61H61.8c-2.43,0-4.41-1.98-4.41-4.42v-61.8c0-2.43,1.98-4.41,4.41-4.41h172.15c2.44,0,4.42,1.98,4.42,4.41v61.8c0,2.44-1.98,4.42-4.42,4.42Zm-167.74-8.83h163.33v-52.97H66.21v52.97Z"/>
      <path class="cls-1" d="m216.3,155.97H79.45c-2.43,0-4.41-1.98-4.41-4.41s1.98-4.42,4.41-4.42h136.84c2.44,0,4.42,1.98,4.42,4.42s-1.98,4.41-4.42,4.41Z"/>
      <path class="cls-1" d="m216.3,183.93H79.45c-2.43,0-4.41-1.98-4.41-4.41s1.98-4.41,4.41-4.41h136.84c2.44,0,4.42,1.97,4.42,4.41s-1.98,4.41-4.42,4.41Z"/>
      <path class="cls-1" d="m216.3,211.89H79.45c-2.43,0-4.41-1.97-4.41-4.41s1.98-4.41,4.41-4.41h136.84c2.44,0,4.42,1.97,4.42,4.41s-1.98,4.41-4.42,4.41Z"/>
      <path class="cls-1" d="m216.3,239.84H79.45c-2.43,0-4.41-1.97-4.41-4.41s1.98-4.41,4.41-4.41h136.84c2.44,0,4.42,1.98,4.42,4.41s-1.98,4.41-4.42,4.41Z"/>
      <path class="cls-1" d="m216.3,267.8H79.45c-2.43,0-4.41-1.98-4.41-4.42s1.98-4.41,4.41-4.41h136.84c2.44,0,4.42,1.98,4.42,4.41s-1.98,4.42-4.42,4.42Z"/>
      <path class="cls-1" d="m216.3,297.23H79.45c-2.43,0-4.41-1.98-4.41-4.41s1.98-4.41,4.41-4.41h136.84c2.44,0,4.42,1.97,4.42,4.41s-1.98,4.41-4.42,4.41Z"/>
    </g>
  </g>
</svg>