<?xml version="1.0" encoding="UTF-8"?>
<svg id="Layer_2" data-name="Layer 2" xmlns="http://www.w3.org/2000/svg" viewBox="0 0 64 43.66">
  <defs>
    <style>
      .cls-1 {
        fill: #57606f;
      }

      .cls-2 {
        fill: #fff;
      }

      .cls-3 {
        fill: #00a7f2;
      }

      .cls-4 {
        fill: #f74357;
      }

      .cls-5 {
        fill: #4c5f68;
      }

      .cls-6 {
        fill: #f4be9c;
      }
    </style>
  </defs>
  <g id="Layer_1-2" data-name="Layer 1">
    <g>
      <path class="cls-1" d="m64,0v43.66H0V0h64Zm-2.98,40.68V2.98H3.16v37.7h57.86Z"/>
      <path class="cls-3" d="m61.02,2.98v37.7H3.16V2.98h57.86ZM27.88,14.2v-7.36H7.36v7.36h20.51Z"/>
      <rect class="cls-2" x="7.36" y="6.84" width="20.51" height="7.36"/>
      <path class="cls-1" d="m27.88,14.73H7.36c-.29,0-.53-.24-.53-.53v-7.36c0-.29.24-.53.53-.53h20.51c.29,0,.53.24.53.53v7.36c0,.29-.24.53-.53.53Zm-19.99-1.05h19.46v-6.31H7.89v6.31Z"/>
      <path class="cls-1" d="m25.78,18.59H9.47c-.29,0-.53-.24-.53-.53s.24-.53.53-.53h16.31c.29,0,.53.24.53.53s-.24.53-.53.53Z"/>
      <path class="cls-1" d="m25.78,21.92H9.47c-.29,0-.53-.24-.53-.53s.24-.53.53-.53h16.31c.29,0,.53.23.53.53s-.24.53-.53.53Z"/>
      <path class="cls-1" d="m25.78,25.25H9.47c-.29,0-.53-.23-.53-.53s.24-.53.53-.53h16.31c.29,0,.53.23.53.53s-.24.53-.53.53Z"/>
      <path class="cls-1" d="m25.78,28.58H9.47c-.29,0-.53-.23-.53-.53s.24-.53.53-.53h16.31c.29,0,.53.24.53.53s-.24.53-.53.53Z"/>
      <path class="cls-1" d="m25.78,31.91H9.47c-.29,0-.53-.24-.53-.53s.24-.53.53-.53h16.31c.29,0,.53.24.53.53s-.24.53-.53.53Z"/>
      <path class="cls-1" d="m25.78,35.42H9.47c-.29,0-.53-.24-.53-.53s.24-.53.53-.53h16.31c.29,0,.53.23.53.53s-.24.53-.53.53Z"/>
      <g>
        <path class="cls-6" d="m49.15,22.46c-2.49,1.99-4.79,1.96-7.01-.07.74-.23,1.28-.35,1.47-.39.99.65,1.82.69,1.91.69h.02c.09,0,.95-.03,1.97-.68.25.05.85.2,1.64.45Z"/>
        <path class="cls-4" d="m56.93,32.42c-.09.21-.86,1.71-3.44,1.29l-.24-1.82c-.03-.2-.21-.35-.42-.32-.2.03-.35.21-.32.42l.25,1.9c-.46.43-2.47,1.97-7.23,2-4.76-.03-6.77-1.58-7.23-2l.25-1.9c.03-.2-.12-.39-.32-.42-.2-.03-.39.12-.42.32l-.24,1.82c-2.59.42-3.35-1.09-3.44-1.29-.45-2.01-.15-3.83.87-5.4,1.51-2.31,4.32-3.66,6.33-4.37,1.36,1.35,2.78,2.03,4.23,2.03s2.89-.65,4.39-1.94c1.99.73,4.63,2.07,6.09,4.28,1.03,1.57,1.32,3.38.87,5.4Z"/>
        <path class="cls-6" d="m50.27,15.07c-.1,2.36-1.56,5.59-2.56,6.28-1.09.76-2.16.83-2.24.83-.07,0-.98-.06-1.99-.9-.98-.82-2.27-2.56-2.82-6.22-.29-1.97.04-3.52,1-4.63,1.05-1.22,2.65-1.65,3.8-1.65.92,0,2.64.19,3.77,1.47.95,1.07,1.13,2.68,1.03,4.82Z"/>
        <path class="cls-5" d="m56.67,26.61c-2.17-3.31-6.63-4.74-8.4-5.19.61-.56,1.12-1.27,1.53-2.12.59-1.23,1.01-3.17,1.13-4.17.28-2.29-.12-4.06-1.18-5.27-1.29-1.46-3.19-1.67-4.21-1.67-1.28,0-3.07.49-4.25,1.86-1.08,1.25-1.46,2.96-1.14,5.09.43,2.87,1.34,4.97,2.73,6.27-1.73.43-6.27,1.86-8.47,5.21-1.15,1.75-1.48,3.77-.97,6,0,.02,0,.03.02.05,0,.03.25.65.95,1.16.6.44,1.67.9,3.4.6.57.53,2.72,2.18,7.75,2.21h0c5.03-.03,7.18-1.68,7.75-2.21,1.72.3,2.79-.15,3.4-.6.7-.52.94-1.14.95-1.16,0-.02.01-.03.02-.05.5-2.23.18-4.25-.97-6Zm-11.15-3.93s0,0,.01,0c0,0,0,0,0,0,.09,0,.95-.03,1.97-.68.25.05.85.2,1.64.45-2.49,1.99-4.79,1.96-7.01-.07.74-.23,1.28-.35,1.47-.39.99.65,1.82.69,1.91.69Zm-4.65-7.66c-.28-1.91.04-3.42.97-4.5,1.02-1.18,2.57-1.6,3.69-1.6.9,0,2.56.18,3.66,1.42.92,1.04,1.26,2.61,1,4.68-.18,1.46-.51,2.72-.98,3.76-.38.84-1.29,1.97-1.68,2.28-1,.81-1.92.86-2,.86-.07,0-.95-.06-1.93-.87-.96-.79-2.21-2.48-2.74-6.04Zm16.06,17.39c-.09.21-.86,1.71-3.44,1.29l-.24-1.82c-.03-.2-.21-.35-.42-.32-.2.03-.35.21-.32.42l.25,1.9c-.46.43-2.47,1.97-7.23,2-4.76-.03-6.77-1.58-7.23-2l.25-1.9c.03-.2-.12-.39-.32-.42-.2-.03-.39.12-.42.32l-.24,1.82c-2.59.42-3.35-1.09-3.44-1.29-.45-2.01-.15-3.83.87-5.4,1.51-2.31,4.32-3.66,6.34-4.37,1.36,1.35,2.78,2.03,4.23,2.03s2.89-.65,4.39-1.94c1.99.73,4.63,2.07,6.09,4.28,1.03,1.57,1.32,3.38.87,5.4Z"/>
      </g>
    </g>
  </g>
</svg>